<svg width="151" height="23" viewBox="0 0 151 23" fill="none" xmlns="http://www.w3.org/2000/svg">
<path d="M0 13.2969V8.87656L12.0244 3.95313V8.37344L4.12465 11.0688L12.0244 13.7641V18.1844L0 13.2969Z" fill="#F7114E"/>
<path d="M12.9682 23L23.6643 0H27.4045L16.7084 23H12.9682Z" fill="#F7114E"/>
<path d="M26.9502 2.44385H32.1934L36.0384 13.4407L39.8834 2.44385H45.0218L38.1707 19.9454H33.8013L26.9502 2.44385Z" fill="white"/>
<path d="M45.3013 19.8016L52.5019 2.3H57.0111L64.2117 19.8016H59.1783L57.9549 16.7109H51.4183L50.2299 19.8016H45.3013ZM52.8165 12.9734H56.6266L54.739 8.01406L52.8165 12.9734Z" fill="white"/>
<path d="M65.8546 19.8016V2.44375H73.8243C76.2711 2.44375 78.1237 3.05469 79.3122 4.3125C80.3259 5.35469 80.8152 6.72031 80.8152 8.44531C80.8152 9.70313 80.5006 10.7812 79.9064 11.6797C79.3122 12.5781 78.4383 13.2609 77.3547 13.7281L81.3745 19.8016H75.9565L72.531 14.5188H70.4686V19.8016H65.8546ZM70.5385 10.7813H73.6146C74.4185 10.7813 75.0127 10.6016 75.4672 10.2422C75.9216 9.88281 76.1313 9.34375 76.1313 8.69688C76.1313 8.05 75.9216 7.54688 75.4672 7.1875C75.0127 6.82813 74.3836 6.68438 73.6146 6.68438H70.5385V10.7813Z" fill="white"/>
<path d="M83.2271 2.44375H89.7636C91.2317 2.44375 92.595 2.65938 93.7834 3.09063C94.9719 3.52188 95.9856 4.09688 96.7895 4.8875C97.5935 5.64219 98.2227 6.57656 98.6421 7.61875C99.0616 8.69688 99.3063 9.84688 99.3063 11.1047C99.3063 12.3625 99.0965 13.5125 98.6421 14.5906C98.1877 15.6687 97.5935 16.5672 96.7895 17.3578C95.9856 18.1484 94.9719 18.7594 93.7485 19.1906C92.5251 19.6219 91.1618 19.8375 89.6937 19.8375H83.2271V2.44375ZM87.911 15.5969H89.8335C91.2667 15.5969 92.3852 15.2016 93.2242 14.4109C94.0631 13.6203 94.4825 12.5422 94.4825 11.1047C94.4825 9.73906 94.0631 8.625 93.2242 7.83438C92.3852 7.04375 91.2317 6.64844 89.8335 6.64844H87.911V15.5969Z" fill="white"/>
<path d="M100.355 19.8016L107.556 2.3H112.065L119.265 19.8016H114.232L113.008 16.7109H106.472L105.283 19.8016H100.355ZM107.87 12.9734H111.68L109.793 8.01406L107.87 12.9734Z" fill="white"/>
<path d="M120.908 19.8016V2.44375H128.878C131.325 2.44375 133.177 3.05469 134.366 4.3125C135.38 5.35469 135.869 6.72031 135.869 8.44531C135.869 9.70313 135.554 10.7813 134.96 11.6797C134.366 12.5781 133.492 13.2609 132.408 13.7281L136.428 19.8016H131.01L127.585 14.5188H125.522V19.8016H120.908ZM125.592 10.7813H128.668C129.472 10.7813 130.066 10.6016 130.521 10.2422C130.975 9.88281 131.185 9.34375 131.185 8.69688C131.185 8.05 130.975 7.54688 130.521 7.1875C130.066 6.82813 129.437 6.68438 128.668 6.68438H125.592V10.7813Z" fill="white"/>
<path d="M138.665 18.2203V13.8L146.565 11.1047L138.665 8.40938V3.95313L150.69 8.87656V13.2969L138.665 18.2203Z" fill="#F7114E"/>
</svg>
