<svg width="28" height="22" viewBox="0 0 28 22" fill="none" xmlns="http://www.w3.org/2000/svg">
<path fill-rule="evenodd" clip-rule="evenodd" d="M0.0606079 1.93935C0.0606079 1.1695 0.684696 0.54541 1.45455 0.54541H26.5455C27.3153 0.54541 27.9394 1.1695 27.9394 1.93935C27.9394 2.7092 27.3153 3.33329 26.5455 3.33329H1.45455C0.684696 3.33329 0.0606079 2.7092 0.0606079 1.93935Z" fill="white"/>
<path fill-rule="evenodd" clip-rule="evenodd" d="M0.0606079 11C0.0606079 10.2301 0.684696 9.60602 1.45455 9.60602H26.5455C27.3153 9.60602 27.9394 10.2301 27.9394 11C27.9394 11.7698 27.3153 12.3939 26.5455 12.3939H1.45455C0.684696 12.3939 0.0606079 11.7698 0.0606079 11Z" fill="white"/>
<path fill-rule="evenodd" clip-rule="evenodd" d="M0.0606079 20.0606C0.0606079 19.2907 0.684696 18.6666 1.45455 18.6666H26.5455C27.3153 18.6666 27.9394 19.2907 27.9394 20.0606C27.9394 20.8304 27.3153 21.4545 26.5455 21.4545H1.45455C0.684696 21.4545 0.0606079 20.8304 0.0606079 20.0606Z" fill="white"/>
</svg>
