<svg width="133" height="132" viewBox="0 0 133 132" fill="none" xmlns="http://www.w3.org/2000/svg">
<circle cx="66.3333" cy="66" r="66" fill="#3E3B68"/>
<path fill-rule="evenodd" clip-rule="evenodd" d="M31.3333 39C29.1241 39 27.3333 40.7909 27.3333 43V89C27.3333 91.2091 29.1241 93 31.3333 93H101.333C103.542 93 105.333 91.2091 105.333 89V43C105.333 40.7909 103.542 39 101.333 39H31.3333ZM39.9948 74.2612C40.8547 74.6692 41.9113 74.8733 43.1647 74.8733C44.3744 74.8733 45.4237 74.6547 46.3127 74.2174C47.2018 73.7802 47.894 73.1681 48.3896 72.3811C48.8851 71.5941 49.1328 70.6686 49.1328 69.6047C49.1328 68.8323 48.9871 68.1473 48.6956 67.5498C48.4187 66.9377 48.0325 66.4203 47.537 65.9976C47.0414 65.5604 46.4731 65.2325 45.8318 65.0139C45.2051 64.7807 44.542 64.6641 43.8424 64.6641C43.07 64.6641 42.4652 64.7443 42.0279 64.9046C41.5907 65.0649 41.2409 65.2325 40.9786 65.4074L41.3284 61.844H47.6463C47.792 61.844 47.9159 61.793 48.0179 61.691C48.1199 61.5889 48.1709 61.4651 48.1709 61.3193V59.8546C48.1709 59.7089 48.1199 59.585 48.0179 59.483C47.9159 59.381 47.792 59.33 47.6463 59.33H39.4265C39.2661 59.33 39.1277 59.381 39.0111 59.483C38.8945 59.585 38.8289 59.7307 38.8143 59.9202L38.0492 67.3967C38.0492 67.5279 38.0929 67.6445 38.1804 67.7465C38.2824 67.834 38.399 67.8777 38.5301 67.8777H40.5414C40.7163 67.8777 40.8693 67.8267 41.0005 67.7247C41.1462 67.6226 41.3065 67.5061 41.4814 67.3749C41.6709 67.2437 41.8968 67.1271 42.1591 67.0251C42.4214 66.9231 42.7566 66.8721 43.1647 66.8721C43.7185 66.8721 44.2068 66.9887 44.6294 67.2219C45.0667 67.4405 45.4091 67.7465 45.6569 68.14C45.9047 68.5335 46.0285 68.9999 46.0285 69.5391C46.0285 70.1513 45.8974 70.6686 45.635 71.0913C45.3727 71.5139 45.0229 71.8346 44.5857 72.0532C44.1631 72.2572 43.6894 72.3592 43.1647 72.3592C42.7712 72.3592 42.3923 72.2937 42.0279 72.1625C41.6782 72.0313 41.3648 71.8273 41.0879 71.5504C40.8256 71.2735 40.6215 70.9164 40.4758 70.4792C40.4175 70.3189 40.3301 70.2096 40.2135 70.1513C40.1114 70.0784 39.9803 70.042 39.82 70.042H37.7869C37.6557 70.042 37.5391 70.0857 37.4371 70.1731C37.3496 70.246 37.3132 70.348 37.3278 70.4792C37.3569 71.237 37.5901 71.9512 38.0273 72.6216C38.4791 73.292 39.135 73.8385 39.9948 74.2612ZM54.557 74.3923C55.2857 74.6984 56.1674 74.8514 57.2022 74.8514C58.237 74.8514 59.1187 74.6984 59.8474 74.3923C60.5907 74.0863 61.1955 73.6636 61.6619 73.1244C62.1283 72.5851 62.478 71.9657 62.7112 71.2662C62.9444 70.5521 63.0756 69.7942 63.1047 68.9926C63.1339 68.5991 63.1484 68.1692 63.1484 67.7028V66.26C63.1484 65.779 63.1339 65.3345 63.1047 64.9264C63.0756 64.1249 62.9371 63.3743 62.6894 62.6747C62.4562 61.9606 62.0991 61.3412 61.6182 60.8165C61.1518 60.2919 60.5542 59.8765 59.8255 59.5704C59.0968 59.2644 58.2224 59.1113 57.2022 59.1113C56.1966 59.1113 55.3294 59.2644 54.6007 59.5704C53.872 59.8765 53.2672 60.2919 52.7862 60.8165C52.3198 61.3412 51.9628 61.9606 51.715 62.6747C51.4673 63.3743 51.3288 64.1249 51.2997 64.9264C51.2851 65.3345 51.2705 65.779 51.2559 66.26V67.7028C51.2705 68.1692 51.2851 68.5991 51.2997 68.9926C51.3434 69.7942 51.4818 70.5521 51.715 71.2662C51.9482 71.9657 52.298 72.5851 52.7644 73.1244C53.2307 73.6636 53.8283 74.0863 54.557 74.3923ZM59.279 71.4192C58.8418 72.0313 58.1495 72.3374 57.2022 72.3374C56.284 72.3374 55.599 72.0313 55.1472 71.4192C54.6954 70.7925 54.455 69.9472 54.4258 68.8833C54.4258 68.4607 54.4185 68.038 54.404 67.6154V66.3037C54.4185 65.8665 54.4258 65.4511 54.4258 65.0576C54.455 64.0228 54.6881 63.1921 55.1254 62.5654C55.5772 61.9242 56.2694 61.6035 57.2022 61.6035C58.1495 61.6035 58.8418 61.9242 59.279 62.5654C59.7308 63.1921 59.964 64.0228 59.9786 65.0576C60.0077 65.4511 60.0223 65.8665 60.0223 66.3037V67.6154C60.0223 68.038 60.0077 68.4607 59.9786 68.8833C59.964 69.9472 59.7308 70.7925 59.279 71.4192ZM68.9248 74.3923C69.6535 74.6984 70.5352 74.8514 71.57 74.8514C72.6047 74.8514 73.4865 74.6984 74.2152 74.3923C74.9585 74.0863 75.5633 73.6636 76.0297 73.1244C76.496 72.5851 76.8458 71.9657 77.079 71.2662C77.3122 70.5521 77.4433 69.7942 77.4725 68.9926C77.5016 68.5991 77.5162 68.1692 77.5162 67.7028V66.26C77.5162 65.779 77.5016 65.3345 77.4725 64.9264C77.4433 64.1249 77.3049 63.3743 77.0571 62.6747C76.8239 61.9606 76.4669 61.3412 75.9859 60.8165C75.5196 60.2919 74.922 59.8765 74.1933 59.5704C73.4646 59.2644 72.5902 59.1113 71.57 59.1113C70.5643 59.1113 69.6972 59.2644 68.9685 59.5704C68.2398 59.8765 67.6349 60.2919 67.154 60.8165C66.6876 61.3412 66.3306 61.9606 66.0828 62.6747C65.835 63.3743 65.6966 64.1249 65.6674 64.9264C65.6529 65.3345 65.6383 65.779 65.6237 66.26V67.7028C65.6383 68.1692 65.6529 68.5991 65.6674 68.9926C65.7112 69.7942 65.8496 70.5521 66.0828 71.2662C66.316 71.9657 66.6658 72.5851 67.1321 73.1244C67.5985 73.6636 68.196 74.0863 68.9248 74.3923ZM73.6468 71.4192C73.2096 72.0313 72.5173 72.3374 71.57 72.3374C70.6518 72.3374 69.9668 72.0313 69.515 71.4192C69.0632 70.7925 68.8227 69.9472 68.7936 68.8833C68.7936 68.4607 68.7863 68.038 68.7717 67.6154V66.3037C68.7863 65.8665 68.7936 65.4511 68.7936 65.0576C68.8227 64.0228 69.0559 63.1921 69.4931 62.5654C69.9449 61.9242 70.6372 61.6035 71.57 61.6035C72.5173 61.6035 73.2096 61.9242 73.6468 62.5654C74.0986 63.1921 74.3318 64.0228 74.3463 65.0576C74.3755 65.4511 74.3901 65.8665 74.3901 66.3037V67.6154C74.3901 68.038 74.3755 68.4607 74.3463 68.8833C74.3318 69.9472 74.0986 70.7925 73.6468 71.4192ZM89.4687 73.7584C89.5707 73.8604 89.6946 73.9114 89.8403 73.9114H91.1083C91.2686 73.9114 91.3925 73.8604 91.4799 73.7584C91.5819 73.6563 91.6329 73.5325 91.6329 73.3867V69.1238H95.8303C95.976 69.1238 96.0999 69.0728 96.2019 68.9708C96.3039 68.8687 96.355 68.7376 96.355 68.5773V67.4405C96.355 67.2802 96.3039 67.1563 96.2019 67.0688C96.0999 66.9668 95.976 66.9158 95.8303 66.9158H91.6329V62.7622C91.6329 62.6164 91.5819 62.4925 91.4799 62.3905C91.3925 62.2885 91.2686 62.2375 91.1083 62.2375H89.8403C89.6946 62.2375 89.5707 62.2885 89.4687 62.3905C89.3666 62.4925 89.3156 62.6164 89.3156 62.7622V66.9158H85.1183C84.9725 66.9158 84.8487 66.9668 84.7466 67.0688C84.6446 67.1563 84.5936 67.2802 84.5936 67.4405V68.5773C84.5936 68.7376 84.6446 68.8687 84.7466 68.9708C84.8487 69.0728 84.9725 69.1238 85.1183 69.1238H89.3156V73.3867C89.3156 73.5325 89.3666 73.6563 89.4687 73.7584ZM67.8333 88C67.8333 88.8284 67.1617 89.5 66.3333 89.5H35.3333C34.5048 89.5 33.8333 88.8284 33.8333 88C33.8333 87.1716 34.5048 86.5 35.3333 86.5H66.3333C67.1617 86.5 67.8333 87.1716 67.8333 88ZM79.3333 44.5L91.8333 44.5C92.9635 44.5 94.6661 44.8075 96.0337 45.6691C97.3207 46.48 98.3333 47.7785 98.3333 50V50.0328V50.0654V50.0979V50.1304V50.1627V50.1949V50.227V50.259V50.2908V50.3226V50.3543V50.3858V50.4173V50.4486V50.4798V50.511V50.542V50.5729V50.6037V50.6344V50.665V50.6955V50.7259V50.7562V50.7864V50.8164V50.8464V50.8763V50.906V50.9357V50.9653V50.9948V51.0241V51.0534V51.0825V51.1116V51.1406V51.1694V51.1982V51.2269V51.2554V51.2839V51.3123V51.3406V51.3687V51.3968V51.4248V51.4527V51.4805V51.5082V51.5358V51.5633V51.5907V51.618V51.6453V51.6724V51.6994V51.7264V51.7532V51.78V51.8067V51.8332V51.8597V51.8861V51.9124V51.9387V51.9648V51.9908V52.0168V52.0426V52.0684V52.0941V52.1197V52.1452V52.1706V52.1959V52.2212V52.2463V52.2714V52.2964V52.3213V52.3461V52.3709V52.3955V52.4201V52.4446V52.469V52.4933V52.5175V52.5416V52.5657V52.5897V52.6136V52.6374V52.6612V52.6848V52.7084V52.7319V52.7553V52.7787V52.802V52.8251V52.8483V52.8713V52.8942V52.9171V52.9399V52.9626V52.9853V53.0079V53.0304V53.0528V53.0751V53.0974V53.1196V53.1417V53.1638V53.1857V53.2077V53.2295V53.2512V53.2729V53.2945V53.3161V53.3376V53.359V53.3803V53.4016V53.4228V53.4439V53.4649V53.4859V53.5068V53.5277V53.5485V53.5692V53.5898V53.6104V53.6309V53.6514V53.6718V53.6921V53.7123V53.7325V53.7526V53.7727V53.7927V53.8126V53.8325V53.8523V53.8721V53.8917V53.9114V53.9309V53.9504V53.9699V53.9892V54.0085V54.0278V54.047V54.0661V54.0852V54.1042V54.1232V54.1421V54.1609V54.1797V54.1985V54.2171V54.2358V54.2543V54.2728V54.2913V54.3097V54.328V54.3463V54.3646V54.3827V54.4009V54.4189V54.437V54.4549V54.4729V54.4907V54.5085V54.5263V54.544V54.5617V54.5793V54.5969V54.6144V54.6318V54.6493V54.6666V54.6839V54.7012V54.7184V54.7356V54.7527V54.7698V54.7869V54.8039V54.8208V54.8377V54.8546V54.8714V54.8881V54.9049V54.9216V54.9382V54.9548V54.9713V54.9879V55.0043V55.0207V55.0371V55.0535V55.0698V55.086V55.1023V55.1185V55.1346V55.1507V55.1668V55.1828V55.1988V55.2147V55.2307V55.2465V55.2624V55.2782V55.294V55.3097V55.3254V55.3411V55.3567V55.3723V55.3878V55.4034V55.4189V55.4343V55.4498V55.4652V55.4805V55.4958V55.5112V55.5264V55.5417V55.5569V55.572V55.5872V55.6023V55.6174V55.6325V55.6475V55.6625V55.6775V55.6924V55.7073V55.7222V55.7371V55.752V55.7668V55.7816V55.7963V55.8111V55.8258V55.8405V55.8551V55.8698V55.8844V55.899V55.9136V55.9281V55.9427V55.9572V55.9717V55.9861V56.0006V56.015V56.0294V56.0438V56.0582V56.0725V56.0868V56.1011V56.1154V56.1297V56.144V56.1582V56.1724V56.1866V56.2008V56.215V56.2292V56.2433V56.2574V56.2716V56.2857V56.2997V56.3138V56.3279V56.3419V56.356V56.37V56.384V56.398V56.412V56.426V56.4399V56.4539V56.4678V56.4818V56.4957V56.5096V56.5235V56.5374V56.5513V56.5652V56.5791V56.593V56.6068V56.6207V56.6346V56.6484V56.6622V56.6761V56.6899V56.7037V56.7176V56.7314V56.7452V56.759V56.7728V56.7866V56.8005V56.8143V56.8281V56.8419V56.8557V56.8695V56.8833V56.8971V56.9109V56.9247V56.9385V56.9523V56.9661V56.9799V56.9937V57.0075V57.0214V57.0352V57.049V57.0628V57.0767V57.0905V57.1044V57.1182V57.1321V57.1459V57.1598V57.1737V57.1876V57.2014V57.2153V57.2292V57.2432V57.2571V57.271V57.285V57.2989V57.3129V57.3268V57.3408V57.3548V57.3688V57.3828V57.3969V57.4109V57.4249V57.439V57.4531V57.4672V57.4813V57.4954V57.5095V57.5237V57.5379V57.552V57.5662V57.5805V57.5947V57.6089V57.6232V57.6375V57.6518V57.6661V57.6804V57.6948V57.7092V57.7235V57.738V57.7524V57.7668V57.7813V57.7958V57.8103V57.8249V57.8394V57.854V57.8686V57.8832V57.8979V57.9126V57.9273V57.942V57.9567V57.9715V57.9863V58.0011V58.016V58.0309V58.0458V58.0607V58.0757V58.0906V58.1057V58.1207V58.1358V58.1509V58.166V58.1812V58.1963V58.2116V58.2268V58.2421V58.2574V58.2727V58.2881V58.3035V58.319V58.3344V58.3499V58.3655V58.3811V58.3967V58.4123V58.428V58.4437V58.4594V58.4752V58.491V58.5069V58.5228V58.5387V58.5547V58.5707V58.5867V58.6028V58.6189V58.6351V58.6513V58.6675V58.6838V58.7001V58.7165V58.7329V58.7493V58.7658V58.7823V58.7989V58.8155V58.8321V58.8488V58.8656V58.8824V58.8992V58.9161V58.933V58.9499V58.967V58.984V59.0011V59.0183V59.0354V59.0527V59.07V59.0873V59.1047V59.1221V59.1396V59.1571V59.1747V59.1923V59.21V59.2278V59.2455V59.2634V59.2813V59.2992V59.3172V59.3352V59.3533V59.3715V59.3897V59.4079V59.4262V59.4446V59.463V59.4815V59.5C98.3333 60.3284 99.0048 61 99.8333 61C100.662 61 101.333 60.3284 101.333 59.5V59.4815V59.463V59.4446V59.4262V59.4079V59.3897V59.3715V59.3533V59.3352V59.3172V59.2992V59.2813V59.2634V59.2455V59.2278V59.21V59.1923V59.1747V59.1571V59.1396V59.1221V59.1047V59.0873V59.07V59.0527V59.0354V59.0183V59.0011V58.984V58.967V58.9499V58.933V58.9161V58.8992V58.8824V58.8656V58.8488V58.8321V58.8155V58.7989V58.7823V58.7658V58.7493V58.7329V58.7165V58.7001V58.6838V58.6675V58.6513V58.6351V58.6189V58.6028V58.5867V58.5707V58.5547V58.5387V58.5228V58.5069V58.491V58.4752V58.4594V58.4437V58.428V58.4123V58.3967V58.3811V58.3655V58.3499V58.3344V58.319V58.3035V58.2881V58.2727V58.2574V58.2421V58.2268V58.2116V58.1963V58.1812V58.166V58.1509V58.1358V58.1207V58.1057V58.0906V58.0757V58.0607V58.0458V58.0309V58.016V58.0011V57.9863V57.9715V57.9567V57.942V57.9273V57.9126V57.8979V57.8832V57.8686V57.854V57.8394V57.8249V57.8103V57.7958V57.7813V57.7668V57.7524V57.738V57.7235V57.7092V57.6948V57.6804V57.6661V57.6518V57.6375V57.6232V57.6089V57.5947V57.5805V57.5662V57.552V57.5379V57.5237V57.5095V57.4954V57.4813V57.4672V57.4531V57.439V57.4249V57.4109V57.3969V57.3828V57.3688V57.3548V57.3408V57.3268V57.3129V57.2989V57.285V57.271V57.2571V57.2432V57.2292V57.2153V57.2014V57.1876V57.1737V57.1598V57.1459V57.1321V57.1182V57.1044V57.0905V57.0767V57.0628V57.049V57.0352V57.0214V57.0075V56.9937V56.9799V56.9661V56.9523V56.9385V56.9247V56.9109V56.8971V56.8833V56.8695V56.8557V56.8419V56.8281V56.8143V56.8005V56.7866V56.7728V56.759V56.7452V56.7314V56.7176V56.7037V56.6899V56.6761V56.6622V56.6484V56.6346V56.6207V56.6068V56.593V56.5791V56.5652V56.5513V56.5374V56.5235V56.5096V56.4957V56.4818V56.4678V56.4539V56.4399V56.426V56.412V56.398V56.384V56.37V56.356V56.3419V56.3279V56.3138V56.2997V56.2857V56.2716V56.2574V56.2433V56.2292V56.215V56.2008V56.1866V56.1724V56.1582V56.144V56.1297V56.1154V56.1011V56.0868V56.0725V56.0582V56.0438V56.0294V56.015V56.0006V55.9861V55.9717V55.9572V55.9427V55.9281V55.9136V55.899V55.8844V55.8698V55.8551V55.8405V55.8258V55.8111V55.7963V55.7816V55.7668V55.752V55.7371V55.7222V55.7073V55.6924V55.6775V55.6625V55.6475V55.6325V55.6174V55.6023V55.5872V55.572V55.5569V55.5417V55.5264V55.5112V55.4958V55.4805V55.4652V55.4498V55.4343V55.4189V55.4034V55.3878V55.3723V55.3567V55.3411V55.3254V55.3097V55.294V55.2782V55.2624V55.2465V55.2307V55.2147V55.1988V55.1828V55.1668V55.1507V55.1346V55.1185V55.1023V55.086V55.0698V55.0535V55.0371V55.0207V55.0043V54.9879V54.9713V54.9548V54.9382V54.9216V54.9049V54.8881V54.8714V54.8546V54.8377V54.8208V54.8039V54.7869V54.7698V54.7527V54.7356V54.7184V54.7012V54.6839V54.6666V54.6493V54.6318V54.6144V54.5969V54.5793V54.5617V54.544V54.5263V54.5085V54.4907V54.4729V54.4549V54.437V54.4189V54.4009V54.3827V54.3646V54.3463V54.328V54.3097V54.2913V54.2728V54.2543V54.2358V54.2171V54.1985V54.1797V54.1609V54.1421V54.1232V54.1042V54.0852V54.0661V54.047V54.0278V54.0085V53.9892V53.9699V53.9504V53.9309V53.9114V53.8917V53.8721V53.8523V53.8325V53.8126V53.7927V53.7727V53.7526V53.7325V53.7123V53.6921V53.6718V53.6514V53.6309V53.6104V53.5898V53.5692V53.5485V53.5277V53.5068V53.4859V53.4649V53.4439V53.4228V53.4016V53.3803V53.359V53.3376V53.3161V53.2945V53.2729V53.2512V53.2295V53.2077V53.1857V53.1638V53.1417V53.1196V53.0974V53.0751V53.0528V53.0304V53.0079V52.9853V52.9626V52.9399V52.9171V52.8942V52.8713V52.8483V52.8251V52.802V52.7787V52.7553V52.7319V52.7084V52.6848V52.6612V52.6374V52.6136V52.5897V52.5657V52.5416V52.5175V52.4933V52.469V52.4446V52.4201V52.3955V52.3709V52.3461V52.3213V52.2964V52.2714V52.2463V52.2212V52.1959V52.1706V52.1452V52.1197V52.0941V52.0684V52.0426V52.0168V51.9908V51.9648V51.9387V51.9124V51.8861V51.8597V51.8332V51.8067V51.78V51.7532V51.7264V51.6994V51.6724V51.6453V51.618V51.5907V51.5633V51.5358V51.5082V51.4805V51.4527V51.4248V51.3968V51.3687V51.3406V51.3123V51.2839V51.2554V51.2269V51.1982V51.1694V51.1406V51.1116V51.0825V51.0534V51.0241V50.9948V50.9653V50.9357V50.906V50.8763V50.8464V50.8164V50.7864V50.7562V50.7259V50.6955V50.665V50.6344V50.6037V50.5729V50.542V50.511V50.4798V50.4486V50.4173V50.3858V50.3543V50.3226V50.2908V50.259V50.227V50.1949V50.1627V50.1304V50.0979V50.0654V50.0328V50C101.333 46.6215 99.6791 44.42 97.6328 43.1309C95.6671 41.8925 93.3697 41.5 91.8333 41.5L79.3333 41.5C78.5048 41.5 77.8333 42.1716 77.8333 43C77.8333 43.8284 78.5048 44.5 79.3333 44.5Z" fill="url(#paint0_linear_66_2367)"/>
<defs>
<linearGradient id="paint0_linear_66_2367" x1="66.3333" y1="39" x2="66.3333" y2="93" gradientUnits="userSpaceOnUse">
<stop stop-color="#A56FFF"/>
<stop offset="1" stop-color="#A56FFF"/>
</linearGradient>
</defs>
</svg>
