<svg width="132" height="132" viewBox="0 0 132 132" fill="none" xmlns="http://www.w3.org/2000/svg">
<circle cx="66" cy="66" r="66" fill="#3E3B68"/>
<path fill-rule="evenodd" clip-rule="evenodd" d="M100 57C101.105 57 102 57.8954 102 59V75C102 76.1046 101.105 77 100 77L32 77C30.8954 77 30 76.1046 30 75V59C30 57.8954 30.8954 57 32 57L100 57ZM41 67C41 68.6569 39.6569 70 38 70C36.3431 70 35 68.6569 35 67C35 65.3431 36.3431 64 38 64C39.6569 64 41 65.3431 41 67ZM46 65C44.8954 65 44 65.8954 44 67C44 68.1046 44.8954 69 46 69H68C69.1046 69 70 68.1046 70 67C70 65.8954 69.1046 65 68 65H46Z" fill="#FC5682"/>
<path fill-rule="evenodd" clip-rule="evenodd" d="M102 36C102 34.8954 101.105 34 100 34L32 34C30.8954 34 30 34.8954 30 36V52C30 53.1046 30.8954 54 32 54L100 54C101.105 54 102 53.1046 102 52V36ZM38 47C39.6569 47 41 45.6569 41 44C41 42.3431 39.6569 41 38 41C36.3431 41 35 42.3431 35 44C35 45.6569 36.3431 47 38 47ZM44 44C44 42.8954 44.8954 42 46 42H68C69.1046 42 70 42.8954 70 44C70 45.1046 69.1046 46 68 46H46C44.8954 46 44 45.1046 44 44ZM87 36.5C86.1716 36.5 85.5 37.1716 85.5 38C85.5 38.8284 86.1716 39.5 87 39.5H94.1739C94.4511 39.5 95.0173 39.6307 95.5097 40.1184C95.9689 40.5732 96.5 41.4761 96.5 43.2632V48C96.5 48.8284 97.1716 49.5 98 49.5C98.8284 49.5 99.5 48.8276 99.5 47.9991V43.2632C99.5 40.8397 98.7558 39.111 97.6208 37.9869C96.519 36.8956 95.1721 36.5 94.1739 36.5H87Z" fill="#FC5682"/>
<path fill-rule="evenodd" clip-rule="evenodd" d="M102 82C102 80.8954 101.105 80 100 80L32 80C30.8954 80 30 80.8954 30 82V98C30 99.1046 30.8954 100 32 100L100 100C101.105 100 102 99.1046 102 98V82ZM38 93C39.6569 93 41 91.6569 41 90C41 88.3431 39.6569 87 38 87C36.3431 87 35 88.3431 35 90C35 91.6569 36.3431 93 38 93ZM44 90C44 88.8954 44.8954 88 46 88H68C69.1046 88 70 88.8954 70 90C70 91.1046 69.1046 92 68 92H46C44.8954 92 44 91.1046 44 90ZM87 97.5C86.1716 97.5 85.5 96.8284 85.5 96C85.5 95.1716 86.1716 94.5 87 94.5H94.1739C94.4511 94.5 95.0173 94.3693 95.5097 93.8816C95.9689 93.4268 96.5 92.5239 96.5 90.7368V86C96.5 85.1716 97.1716 84.5 98 84.5C98.8284 84.5 99.5 85.1724 99.5 86.0009V90.7368C99.5 93.1603 98.7558 94.889 97.6208 96.0131C96.519 97.1044 95.1721 97.5 94.1739 97.5H87Z" fill="#FC5682"/>
</svg>
