<svg width="132" height="132" viewBox="0 0 132 132" fill="none" xmlns="http://www.w3.org/2000/svg">
<circle cx="66" cy="66" r="66" fill="#3E3B68"/>
<path fill-rule="evenodd" clip-rule="evenodd" d="M65.1476 30.0256C65.6586 29.5643 66.5321 29.5654 67.0391 30.0311C71.8887 34.4852 88.5411 41.8098 97.1544 42.3677C97.7055 42.4034 98.15 42.8493 98.15 43.4016V75.9055C98.15 87.6657 69.7381 104.452 66.3277 105.942C66.1646 106.013 65.9856 106.013 65.8214 105.945C62.407 104.518 34 88.7265 34 74.2303V43.4016C34 42.8493 34.4422 42.4033 34.993 42.3627C43.0753 41.7668 60.2299 34.4662 65.1476 30.0256ZM92.712 74.2304C92.712 73.5044 92.1235 72.916 91.3976 72.916C90.6716 72.916 90.0832 73.5044 90.0832 74.2304C90.0832 76.1075 88.8675 78.4259 86.646 80.9923C84.4689 83.5073 81.5183 86.0425 78.4766 88.3299C75.4428 90.6113 72.3601 92.6152 69.9488 94.0713C68.7436 94.7992 67.7124 95.3864 66.9451 95.8003C66.5607 96.0077 66.2495 96.1678 66.0197 96.2791C65.8666 96.3532 65.7793 96.3908 65.7417 96.407L65.7416 96.4071C65.7263 96.4137 65.7193 96.4167 65.7194 96.4172C65.7195 96.4174 65.7208 96.4172 65.7232 96.4166L65.7345 96.4136L65.7366 96.4131C65.0352 96.6001 64.6181 97.3203 64.8051 98.0217C64.9921 98.7232 65.7124 99.1402 66.4138 98.9532C66.6438 98.8919 66.9322 98.7581 67.1655 98.6451C67.4413 98.5115 67.7887 98.3322 68.1933 98.1139C69.0042 97.6765 70.0728 97.0675 71.3078 96.3217C73.777 94.8305 76.9365 92.7773 80.0566 90.431C83.1687 88.0906 86.2837 85.4275 88.6336 82.7128C90.9391 80.0494 92.712 77.1066 92.712 74.2304ZM66.8425 36.3087C67.4319 36.7325 67.5662 37.5538 67.1425 38.1433C66.713 38.7407 66.0551 39.3169 65.3188 39.8551C64.564 40.4067 63.6461 40.976 62.6236 41.5442C60.5774 42.6813 58.0416 43.8535 55.3973 44.91C52.7513 45.9672 49.971 46.9188 47.4306 47.6081C45.5155 48.1279 43.6842 48.5132 42.1285 48.6676C42.0937 48.671 42.0673 48.7003 42.0673 48.7353V48.7989V48.8624V48.9258V48.9889V49.0519V49.1148V49.1775V49.24V49.3024V49.3646V49.4267V49.4886V49.5503V49.6119V49.6734V49.7347V49.7958V49.8568V49.9176V49.9783V50.0388V50.0992V50.1595V50.2195V50.2795V50.3393V50.3989V50.4584V50.5177V50.577V50.636V50.6949V50.7537V50.8123V50.8708V50.9292V50.9874V51.0454V51.1034V51.1612V51.2188V51.2763V51.3337V51.3909V51.448V51.505V51.5619V51.6186V51.6751V51.7316V51.7879V51.844V51.9001V51.956V52.0118V52.0674V52.1229V52.1783V52.2336V52.2887V52.3438V52.3986V52.4534V52.5081V52.5626V52.617V52.6712V52.7254V52.7794V52.8333V52.8871V52.9408V52.9943V53.0478V53.1011V53.1543V53.2074V53.2603V53.3132V53.3659V53.4186V53.4711V53.5235V53.5758V53.6279V53.68V53.732V53.7838V53.8355V53.8872V53.9387V53.9901V54.0414V54.0926V54.1437V54.1947V54.2456V54.2964V54.3471V54.3976V54.4481V54.4985V54.5488V54.5989V54.649V54.699V54.7489V54.7987V54.8484V54.898V54.9475V54.9969V55.0462V55.0954V55.1445V55.1935V55.2425V55.2913V55.3401V55.3888V55.4373V55.4858V55.5342V55.5825V55.6308V55.6789V55.727V55.7749V55.8228V55.8706V55.9183V55.966V56.0135V56.061V56.1084V56.1557V56.2029V56.2501V56.2972V56.3442V56.3911V56.4379V56.4847V56.5314V56.578V56.6246V56.671V56.7174V56.7638V56.81V56.8562V56.9023V56.9484V56.9944V57.0403V57.0861V57.1319V57.1776V57.2232V57.2688V57.3143V57.3598V57.4051V57.4505V57.4957V57.5409V57.5861V57.6311V57.6761V57.7211V57.766V57.8108V57.8556V57.9003V57.945V57.9896V58.0342V58.0787V58.1231V58.1675V58.2119V58.2562V58.3004V58.3446V58.3888V58.4328V58.4769V58.5209V58.5648V58.6087V58.6526V58.6964V58.7402V58.7839V58.8275V58.8712V58.9148V58.9583V59.0018V59.0453V59.0887V59.1321V59.1754V59.2187V59.262V59.3052V59.3484V59.3916V59.4347V59.4778V59.5209V59.5639V59.6069V59.6498V59.6927V59.7356V59.7785V59.8213V59.8641V59.9069V59.9497V59.9924V60.0351V60.0777V60.1204V60.163V60.2056V60.2482V60.2907V60.3332V60.3757V60.4182V60.4607V60.5031V60.5455V60.5879V60.6303V60.6727V60.715V60.7573V60.7997V60.842V60.8842V60.9265V60.9688V61.011V61.0533V61.0955V61.1377V61.1799V61.2221V61.2643V61.3064V61.3486V61.3908V61.4329V61.4751V61.5172V61.5593V61.6015V61.6436V61.6857V61.7279V61.77V61.8121V61.8542V61.8963V61.9385V61.9806V62.0227V62.0648V62.107V62.1491V62.1912V62.2334V62.2755V62.3177V62.3598V62.402V62.4442V62.4864V62.5286V62.5708V62.613V62.6552V62.6975V62.7397V62.782V62.8243V62.8666V62.9089V62.9512V62.9935V63.0359V63.0783V63.1206V63.1631V63.2055V63.2479V63.2904V63.3329V63.3754V63.4179V63.4605V63.5031V63.5457V63.5883V63.631V63.6736V63.7163V63.7591V63.8018V63.8446V63.8874V63.9303V63.9732V64.0161V64.059V64.102V64.145V64.188V64.2311V64.2742V64.3174V64.3605V64.4037V64.447V64.4903V64.5336V64.577V64.6204V64.6638V64.7073V64.7508V64.7944V64.838V64.8817V64.9254V64.9691V65.0129V65.0567V65.1006V65.1445V65.1885V65.2325V65.2766V65.3207V65.3648V65.4091V65.4533V65.4977V65.542V65.5864V65.6309V65.6755V65.72V65.7647V65.8094V65.8541V65.8989V65.9438V65.9887V66.0337V66.0788V66.1239V66.169V66.2143V66.2596V66.3049V66.3503V66.3958V66.4413V66.487V66.5326V66.5784V66.6242V66.6701V66.716V66.762V66.8081V66.8542V66.9005V66.9468V66.9931V67.0396V67.0861V67.1326V67.1793V67.226V67.2728V67.3197V67.3667V67.4137V67.4608V67.508V67.5553V67.6027V67.6501V67.6976V67.7452V67.7929V67.8406V67.8885V67.9364V67.9844V68.0325V68.0807V68.129V68.1773V68.2258V68.2743V68.3229V68.3717V68.4205V68.4694V68.5183V68.5674V68.6166V68.6659V68.7152V68.7647V68.8142V68.8638V68.9136V68.9634V69.0133V69.0634V69.1135V69.1637V69.2141V69.2645V69.315V69.3657V69.4164V69.4672V69.5182V69.5692V69.6204V69.6716V69.723V69.7744V69.826V69.8777V69.9295V69.9814V70.0334V70.0855V70.1378V70.1901V70.2426V70.2951V70.3478V70.4006V70.4535V70.5065V70.5597V70.6129V70.6663V70.7198V70.7734V70.8271V70.881V70.935V70.9891V71.0433V71.0976V71.1521V71.2066V71.2613V71.3162V71.3711V71.4262V71.4814V71.5367V71.5922V71.6478V71.7035V71.7593V71.8153V71.8714V71.9277V71.984V72.0405V72.0972V72.1539V72.2108V72.2679V72.3251V72.3824V72.4398V72.4974V72.5551C42.0673 73.281 41.4788 73.8695 40.7528 73.8695C40.0269 73.8695 39.4384 73.281 39.4384 72.5551V72.4974V72.4398V72.3824V72.3251V72.2679V72.2108V72.1539V72.0972V72.0405V71.984V71.9277V71.8714V71.8153V71.7593V71.7035V71.6478V71.5922V71.5367V71.4814V71.4262V71.3711V71.3162V71.2613V71.2066V71.1521V71.0976V71.0433V70.9891V70.935V70.881V70.8271V70.7734V70.7198V70.6663V70.6129V70.5597V70.5065V70.4535V70.4006V70.3478V70.2951V70.2426V70.1901V70.1378V70.0855V70.0334V69.9814V69.9295V69.8777V69.826V69.7744V69.723V69.6716V69.6204V69.5692V69.5182V69.4672V69.4164V69.3657V69.315V69.2645V69.2141V69.1637V69.1135V69.0634V69.0133V68.9634V68.9136V68.8638V68.8142V68.7647V68.7152V68.6659V68.6166V68.5674V68.5183V68.4694V68.4205V68.3717V68.3229V68.2743V68.2258V68.1773V68.129V68.0807V68.0325V67.9844V67.9364V67.8885V67.8406V67.7929V67.7452V67.6976V67.6501V67.6027V67.5553V67.508V67.4608V67.4137V67.3667V67.3197V67.2728V67.226V67.1793V67.1326V67.0861V67.0396V66.9931V66.9468V66.9005V66.8542V66.8081V66.762V66.716V66.6701V66.6242V66.5784V66.5326V66.487V66.4413V66.3958V66.3503V66.3049V66.2596V66.2143V66.169V66.1239V66.0788V66.0337V65.9887V65.9438V65.8989V65.8541V65.8094V65.7647V65.72V65.6755V65.6309V65.5864V65.542V65.4977V65.4533V65.4091V65.3648V65.3207V65.2766V65.2325V65.1885V65.1445V65.1006V65.0567V65.0129V64.9691V64.9254V64.8817V64.838V64.7944V64.7508V64.7073V64.6638V64.6204V64.577V64.5336V64.4903V64.447V64.4037V64.3605V64.3174V64.2742V64.2311V64.188V64.145V64.102V64.059V64.0161V63.9732V63.9303V63.8874V63.8446V63.8018V63.7591V63.7163V63.6736V63.631V63.5883V63.5457V63.5031V63.4605V63.4179V63.3754V63.3329V63.2904V63.2479V63.2055V63.1631V63.1206V63.0783V63.0359V62.9935V62.9512V62.9089V62.8666V62.8243V62.782V62.7397V62.6975V62.6552V62.613V62.5708V62.5286V62.4864V62.4442V62.402V62.3598V62.3177V62.2755V62.2334V62.1912V62.1491V62.107V62.0648V62.0227V61.9806V61.9385V61.8963V61.8542V61.8121V61.77V61.7279V61.6857V61.6436V61.6015V61.5593V61.5172V61.4751V61.4329V61.3908V61.3486V61.3064V61.2643V61.2221V61.1799V61.1377V61.0955V61.0533V61.011V60.9688V60.9265V60.8842V60.842V60.7997V60.7573V60.715V60.6727V60.6303V60.5879V60.5455V60.5031V60.4607V60.4182V60.3757V60.3332V60.2907V60.2482V60.2056V60.163V60.1204V60.0777V60.0351V59.9924V59.9497V59.9069V59.8641V59.8213V59.7785V59.7356V59.6927V59.6498V59.6069V59.5639V59.5209V59.4778V59.4347V59.3916V59.3484V59.3052V59.262V59.2187V59.1754V59.1321V59.0887V59.0453V59.0018V58.9583V58.9148V58.8712V58.8275V58.7839V58.7402V58.6964V58.6526V58.6087V58.5648V58.5209V58.4769V58.4328V58.3888V58.3446V58.3004V58.2562V58.2119V58.1675V58.1231V58.0787V58.0342V57.9896V57.945V57.9003V57.8556V57.8108V57.766V57.7211V57.6761V57.6311V57.5861V57.5409V57.4957V57.4505V57.4051V57.3598V57.3143V57.2688V57.2232V57.1776V57.1319V57.0861V57.0403V56.9944V56.9484V56.9023V56.8562V56.81V56.7638V56.7174V56.671V56.6246V56.578V56.5314V56.4847V56.4379V56.3911V56.3442V56.2972V56.2501V56.2029V56.1557V56.1084V56.061V56.0135V55.966V55.9183V55.8706V55.8228V55.7749V55.727V55.6789V55.6308V55.5825V55.5342V55.4858V55.4373V55.3888V55.3401V55.2913V55.2425V55.1935V55.1445V55.0954V55.0462V54.9969V54.9475V54.898V54.8484V54.7987V54.7489V54.699V54.649V54.5989V54.5488V54.4985V54.4481V54.3976V54.3471V54.2964V54.2456V54.1947V54.1437V54.0926V54.0414V53.9901V53.9387V53.8872V53.8355V53.7838V53.732V53.68V53.6279V53.5758V53.5235V53.4711V53.4186V53.3659V53.3132V53.2603V53.2074V53.1543V53.1011V53.0478V52.9943V52.9408V52.8871V52.8333V52.7794V52.7254V52.6712V52.617V52.5626V52.5081V52.4534V52.3986V52.3438V52.2887V52.2336V52.1783V52.1229V52.0674V52.0118V51.956V51.9001V51.844V51.7879V51.7316V51.6751V51.6186V51.5619V51.505V51.448V51.3909V51.3337V51.2763V51.2188V51.1612V51.1034V51.0454V50.9874V50.9292V50.8708V50.8123V50.7537V50.6949V50.636V50.577V50.5177V50.4584V50.3989V50.3393V50.2795V50.2195V50.1595V50.0992V50.0388V49.9783V49.9176V49.8568V49.7958V49.7347V49.6734V49.6119V49.5503V49.4886V49.4267V49.3646V49.3024V49.24V49.1775V49.1148V49.0519V48.9889V48.9258V48.8624V48.7989V48.7353V48.6715V48.6075V48.5433V48.479V48.4145V48.3499V48.2851V48.2201V48.155V48.0897V48.0242V47.9585V47.8927V47.8267V47.7606V47.6942V47.6277V47.561V47.4942V47.4272C39.4384 46.7012 40.0269 46.1127 40.7528 46.1127C42.1896 46.1127 44.2901 45.7364 46.7422 45.071C49.1694 44.4124 51.8532 43.4951 54.422 42.4688C56.9925 41.4417 59.4222 40.3157 61.3466 39.2463C62.3093 38.7113 63.1278 38.2002 63.7675 37.7326C64.4256 37.2516 64.8202 36.8698 65.008 36.6087C65.4317 36.0193 66.2531 35.885 66.8425 36.3087ZM78.1714 55.5259C78.9512 54.7521 80.2091 54.7521 80.9889 55.5259L83.214 57.7339C84.0023 58.5162 84.0023 59.7909 83.214 60.5732L64.1073 79.5332C63.3276 80.307 62.0696 80.307 61.2898 79.5332L52.3121 70.6244C51.5238 69.8421 51.5238 68.5674 52.3121 67.7851L54.5372 65.5771C55.317 64.8033 56.5749 64.8033 57.3547 65.5771L61.2898 69.482C62.0696 70.2558 63.3276 70.2558 64.1073 69.482L78.1714 55.5259Z" fill="#4BAEF7"/>
</svg>
