<svg width="133" height="132" viewBox="0 0 133 132" fill="none" xmlns="http://www.w3.org/2000/svg">
<circle cx="66.6667" cy="66" r="66" fill="#3E3B68"/>
<path d="M86.243 101.114L86.4794 101.556L86.9212 101.318C90.4333 99.4259 93.6726 97.0229 96.5246 94.171C104.236 86.4598 108.48 76.2109 108.48 65.313C108.48 54.4152 104.236 44.1663 96.5246 36.4551C88.8134 28.744 78.5645 24.5 67.6666 24.5C56.769 24.5 46.52 28.7439 38.8174 36.4551C31.1063 44.1663 26.8623 54.4152 26.8623 65.313C26.8623 68.296 27.1791 71.2713 27.8131 74.151L27.9225 74.6479L28.4175 74.5298L30.7131 73.982L31.1927 73.8676L31.085 73.3864C31.0347 73.1615 31.0339 72.9187 31.0394 72.6123C31.0397 72.5939 31.0401 72.5752 31.0404 72.5563C31.0457 72.2802 31.0521 71.949 30.9941 71.6192C30.6424 69.5428 30.4623 67.4234 30.4623 65.3043C30.4623 55.3674 34.3314 46.025 41.3593 38.997C48.3873 31.969 57.7211 28.1 67.6666 28.1C77.6123 28.1 86.9546 31.9691 93.9824 39.0055L93.9827 39.0057C101.011 46.0337 104.88 55.3761 104.88 65.313C104.88 75.25 101.011 84.5924 93.9827 91.6204C91.373 94.23 88.4298 96.4264 85.2222 98.1417L84.7815 98.3774L85.0169 98.8182L86.243 101.114Z" fill="#FFDF6F" stroke="#FFDF6F"/>
<path d="M111.623 65.313C111.623 71.913 109.24 77.2695 106.31 77.2695C105.11 77.2695 104.005 76.3739 103.11 74.8609C101.823 72.6782 103.823 69.2087 103.823 65.313C103.823 61.4174 101.814 57.9652 103.092 55.7826C103.988 54.2609 105.092 53.3565 106.301 53.3565C109.249 53.3565 111.623 58.7043 111.623 65.313Z" fill="#FFDF6F"/>
<path d="M23.6667 65.313C23.6667 71.913 26.0494 77.2695 28.9798 77.2695C30.1798 77.2695 31.2841 76.3739 32.1798 74.8609C33.4667 72.6782 31.4667 69.2087 31.4667 65.313C31.4667 61.4174 33.4754 57.9652 32.1972 55.7826C31.3015 54.2609 30.1972 53.3565 28.9885 53.3565C26.0494 53.3565 23.6667 58.7043 23.6667 65.313Z" fill="#FFDF6F"/>
<path d="M88.2611 103.212C91.3484 101.168 92.8861 98.0531 91.6956 96.2552C90.5051 94.4572 87.0373 94.6569 83.9499 96.7012C80.8626 98.7454 79.325 101.86 80.5155 103.658C81.706 105.456 85.1738 105.256 88.2611 103.212Z" fill="#FFDF6F"/>
<path fill-rule="evenodd" clip-rule="evenodd" d="M67.68 32.5782C49.4962 32.5694 34.6667 47.2766 34.6667 65.3104C34.6667 79.9826 44.403 92.4049 57.829 96.5544L64.4228 105.904C66.0028 108.136 69.3307 108.136 70.9107 105.904L77.5045 96.5544C90.9217 92.4049 100.667 79.9826 100.667 65.3104C100.667 47.2416 85.8991 32.5869 67.68 32.5782ZM52.9564 69.2323C50.7673 69.2323 48.9931 67.4727 48.9931 65.3016C48.9931 63.1306 50.7673 61.371 52.9564 61.371C55.1455 61.371 56.9198 63.1306 56.9198 65.3016C56.911 67.4727 55.1367 69.2323 52.9564 69.2323ZM67.6623 69.2323C65.4732 69.2323 63.699 67.4727 63.699 65.3016C63.699 63.1306 65.4732 61.371 67.6623 61.371C69.8514 61.371 71.6257 63.1306 71.6257 65.3016C71.6257 67.4727 69.8514 69.2323 67.6623 69.2323ZM82.3771 69.2323C80.1879 69.2323 78.4137 67.4727 78.4137 65.3016C78.4137 63.1306 80.1879 61.371 82.3771 61.371C84.5662 61.371 86.3404 63.1306 86.3404 65.3016C86.3316 67.4727 84.5662 69.2323 82.3771 69.2323ZM95.174 59.3545C94.4119 59.6794 93.5308 59.325 93.2059 58.5629C92.9271 57.9091 92.6701 57.2576 92.412 56.6033C91.6726 54.7293 90.9241 52.8319 89.6289 50.7886C87.9262 48.1023 85.2752 45.2008 80.4953 42.28C79.7884 41.848 79.5655 40.9248 79.9974 40.2179C80.4294 39.511 81.3526 39.2881 82.0595 39.7201C87.2032 42.8631 90.197 46.0812 92.1627 49.1825C93.6253 51.4898 94.5192 53.7587 95.2781 55.685L95.2782 55.6851L95.2783 55.6854C95.5162 56.2892 95.7408 56.8593 95.9655 57.3864C96.2904 58.1484 95.936 59.0296 95.174 59.3545ZM46.0287 80.285C45.6816 79.5329 44.7904 79.2045 44.0382 79.5516C43.286 79.8987 42.9577 80.7899 43.3048 81.5421C45.8734 87.1082 50.7531 90.2368 57.9014 93.5038C58.6549 93.8482 59.5448 93.5165 59.8892 92.763C60.2335 92.0096 59.9019 91.1196 59.1484 90.7753C52.0897 87.5492 48.1122 84.7998 46.0287 80.285Z" fill="#FFDF6F"/>
</svg>
