<svg width="18" height="18" viewBox="0 0 18 18" fill="none" xmlns="http://www.w3.org/2000/svg">
<path d="M10.414 9.00001L17.707 1.70701C18.098 1.31601 18.098 0.683006 17.707 0.293006C17.316 -0.0979941 16.683 -0.0979941 16.293 0.293006L8.99999 7.58601L1.70699 0.293006C1.31599 -0.0979941 0.682988 -0.0979941 0.292988 0.293006C-0.0970117 0.684006 -0.0970117 1.31701 0.292988 1.70701L7.58599 9.00001L0.292988 16.293C-0.0970117 16.684 -0.0970117 17.317 0.292988 17.707C0.487988 17.902 0.743988 18 0.999988 18C1.25599 18 1.51199 17.902 1.70699 17.707L8.99999 10.414L16.293 17.707C16.488 17.902 16.744 18 17 18C17.256 18 17.512 17.902 17.707 17.707C18.098 17.316 18.098 16.683 17.707 16.293L10.414 9.00001Z" fill="white"/>
</svg>
