<svg width="148" height="148" viewBox="0 0 148 148" fill="none" xmlns="http://www.w3.org/2000/svg">
<path d="M83.4194 10.8902C114.032 15.5999 137.581 41.9741 137.581 73.9999V76.3547" stroke="url(#paint0_linear_66_2331)" stroke-width="1.47826" stroke-miterlimit="10" stroke-linecap="round" stroke-linejoin="round"/>
<path d="M147 66.9353L137.581 76.3547L128.161 66.9353" stroke="url(#paint1_linear_66_2331)" stroke-width="1.47826" stroke-miterlimit="10" stroke-linecap="round" stroke-linejoin="round"/>
<path d="M10.8909 64.5806C15.6005 33.9677 41.9747 10.4193 74.0005 10.4193H76.3554" stroke="url(#paint2_linear_66_2331)" stroke-width="1.47826" stroke-miterlimit="10" stroke-linecap="round" stroke-linejoin="round"/>
<path d="M66.9353 1L76.3547 10.4194L66.9353 19.8387" stroke="url(#paint3_linear_66_2331)" stroke-width="1.47826" stroke-miterlimit="10" stroke-linecap="round" stroke-linejoin="round"/>
<path d="M64.5807 137.11C33.9678 132.4 10.4194 106.026 10.4194 73.9999V71.6451" stroke="url(#paint4_linear_66_2331)" stroke-width="1.47826" stroke-miterlimit="10" stroke-linecap="round" stroke-linejoin="round"/>
<path d="M1 81.0645L10.4194 71.6451L19.8387 81.0645" stroke="url(#paint5_linear_66_2331)" stroke-width="1.47826" stroke-miterlimit="10" stroke-linecap="round" stroke-linejoin="round"/>
<path d="M137.111 83.4193C132.401 114.032 106.027 137.581 74.0008 137.581H71.646" stroke="url(#paint6_linear_66_2331)" stroke-width="1.47826" stroke-miterlimit="10" stroke-linecap="round" stroke-linejoin="round"/>
<path d="M81.0654 147L71.646 137.581L81.0654 128.161" stroke="url(#paint7_linear_66_2331)" stroke-width="1.47826" stroke-miterlimit="10" stroke-linecap="round" stroke-linejoin="round"/>
<path d="M144.645 55.6323C138.052 31.1419 119.213 11.3613 95.1936 4.29677" stroke="url(#paint8_linear_66_2331)" stroke-width="0.73913" stroke-miterlimit="10" stroke-linecap="round" stroke-linejoin="round"/>
<path d="M55.6331 3.35489C31.1428 9.94844 11.3621 28.7871 4.29761 52.8065" stroke="url(#paint9_linear_66_2331)" stroke-width="0.73913" stroke-miterlimit="10" stroke-linecap="round" stroke-linejoin="round"/>
<path d="M3.354 92.3677C9.94755 116.858 28.7863 136.639 52.8056 143.703" stroke="url(#paint10_linear_66_2331)" stroke-width="0.73913" stroke-miterlimit="10" stroke-linecap="round" stroke-linejoin="round"/>
<path d="M92.3672 144.645C116.858 138.052 136.638 119.213 143.703 95.1937" stroke="url(#paint11_linear_66_2331)" stroke-width="0.73913" stroke-miterlimit="10" stroke-linecap="round" stroke-linejoin="round"/>
<path fill-rule="evenodd" clip-rule="evenodd" d="M61.2574 49.5664C60.4099 49.8865 59.5486 50.2119 58.6805 50.5719C58.6095 50.5128 58.5343 50.4515 58.456 50.3877C58.105 50.102 57.6913 49.7651 57.3208 49.3417C54.9141 47 53.7163 45.8346 52.5293 45.8455C51.3534 45.8563 50.188 47.0217 47.868 49.3417C44.7602 52.4495 44.6954 53.4854 47.9327 56.4637C49.8751 58.2766 50.652 59.8305 48.8392 62.0965C48.5154 62.5498 48.2564 63.0677 48.1917 63.5857C47.609 67.4704 45.3429 68.6358 41.6524 68.1826C39.1921 67.8589 37.7677 69.2186 37.7677 71.8084C37.7677 72.3086 37.7465 72.8141 37.7253 73.3189C37.6725 74.5781 37.6198 75.8325 37.8972 76.988C38.0914 78.0239 39.3863 79.7073 39.969 79.6426C45.4724 78.9304 47.2853 81.8439 48.9686 86.5056C49.9398 89.1602 49.6808 90.1961 47.9975 91.8147C44.6954 95.052 44.7602 95.8937 47.9975 99.1957C48.7744 99.9727 49.5513 100.75 50.3283 101.462C51.8822 102.886 53.6951 103.016 54.8605 101.397C57.4503 97.7713 60.0401 98.2245 63.7954 99.9079C66.9031 101.332 68.457 102.562 68.0686 106.059C67.9391 107.289 68.8455 109.231 69.8814 109.749C74.9316 112.404 79.658 109.62 79.658 104.181C79.658 102.304 80.0465 101.073 82.1183 100.75C83.0895 100.62 84.0607 100.296 84.8376 99.7784C87.8159 97.6418 90.1468 97.9656 92.3481 101.009C93.5135 102.692 95.5206 103.469 97.0745 101.721C97.6022 101.123 98.2589 100.601 98.9174 100.078C100.683 98.676 102.461 97.2635 101.801 94.3398C101.736 93.9513 101.412 93.4981 101.089 93.3039C97.3335 90.8435 97.204 87.93 99.6644 84.4985C99.9233 84.1748 100.053 83.6568 100.118 83.2683C100.506 80.549 102.125 80.0311 104.65 80.0958C109.311 80.2253 109.765 79.6426 109.765 74.9162V72.0026C109.765 69.8013 108.599 68.2474 106.463 68.5711C102.189 69.2186 100.118 67.4704 99.4054 63.4562C99.3406 63.1325 99.2111 62.8087 99.0169 62.5498C96.945 60.0247 97.9162 58.2766 99.9881 56.3342C101.024 55.2983 102.125 53.1617 101.736 51.9963C100.053 46.4281 94.7437 45.2627 90.6 49.2769C90.2445 49.6324 89.8585 49.9574 89.4839 50.2728C89.3127 50.417 89.1438 50.5592 88.9813 50.7013C88.4643 50.459 87.9593 50.2085 87.4604 49.9611C85.9602 49.2171 84.5148 48.5002 82.96 48.1115C80.3055 47.4641 79.5933 46.1692 79.658 43.5793C79.7227 42.0254 79.0753 39.3061 78.2983 39.1119C75.579 38.4644 72.4713 38.2702 69.8167 38.9824C69.1825 39.1515 68.8796 40.5631 68.5654 42.0272C68.3985 42.8051 68.2285 43.5978 68.0038 44.2268C67.911 44.4523 67.8209 44.6967 67.7284 44.9475C67.3697 45.9206 66.9764 46.9875 66.2557 47.3993C64.6871 48.2707 63.0013 48.9076 61.2574 49.5664ZM73.9604 54.7803C84.5787 54.9098 93.1898 63.6504 93.1251 74.3334C93.0603 85.0165 84.4492 93.4981 73.7662 93.5629C62.3062 93.6276 54.5368 83.5273 54.5368 74.0745C54.472 63.6504 63.5364 54.7156 73.9604 54.7803ZM74.0001 86.2941C80.7899 86.2941 86.2942 80.7899 86.2942 74C86.2942 67.2102 80.7899 61.7059 74.0001 61.7059C67.2102 61.7059 61.706 67.2102 61.706 74C61.706 80.7899 67.2102 86.2941 74.0001 86.2941Z" fill="url(#paint12_linear_66_2331)"/>
<defs>
<linearGradient id="paint0_linear_66_2331" x1="110.5" y1="10.8902" x2="110.5" y2="76.3547" gradientUnits="userSpaceOnUse">
<stop stop-color="#99F897"/>
<stop offset="0.520833" stop-color="#2D7B9C"/>
<stop offset="1" stop-color="#1F4DC2"/>
</linearGradient>
<linearGradient id="paint1_linear_66_2331" x1="137.581" y1="66.9353" x2="137.581" y2="76.3547" gradientUnits="userSpaceOnUse">
<stop stop-color="#99F897"/>
<stop offset="0.520833" stop-color="#2D7B9C"/>
<stop offset="1" stop-color="#1F4DC2"/>
</linearGradient>
<linearGradient id="paint2_linear_66_2331" x1="43.6231" y1="10.4193" x2="43.6231" y2="64.5806" gradientUnits="userSpaceOnUse">
<stop stop-color="#99F897"/>
<stop offset="0.520833" stop-color="#2D7B9C"/>
<stop offset="1" stop-color="#1F4DC2"/>
</linearGradient>
<linearGradient id="paint3_linear_66_2331" x1="71.645" y1="1" x2="71.645" y2="19.8387" gradientUnits="userSpaceOnUse">
<stop stop-color="#99F897"/>
<stop offset="0.520833" stop-color="#2D7B9C"/>
<stop offset="1" stop-color="#1F4DC2"/>
</linearGradient>
<linearGradient id="paint4_linear_66_2331" x1="37.5001" y1="71.6451" x2="37.5001" y2="137.11" gradientUnits="userSpaceOnUse">
<stop stop-color="#99F897"/>
<stop offset="0.520833" stop-color="#2D7B9C"/>
<stop offset="1" stop-color="#1F4DC2"/>
</linearGradient>
<linearGradient id="paint5_linear_66_2331" x1="10.4194" y1="71.6451" x2="10.4194" y2="81.0645" gradientUnits="userSpaceOnUse">
<stop stop-color="#99F897"/>
<stop offset="0.520833" stop-color="#2D7B9C"/>
<stop offset="1" stop-color="#1F4DC2"/>
</linearGradient>
<linearGradient id="paint6_linear_66_2331" x1="104.378" y1="83.4193" x2="104.378" y2="137.581" gradientUnits="userSpaceOnUse">
<stop stop-color="#99F897"/>
<stop offset="0.520833" stop-color="#2D7B9C"/>
<stop offset="1" stop-color="#1F4DC2"/>
</linearGradient>
<linearGradient id="paint7_linear_66_2331" x1="76.3557" y1="128.161" x2="76.3557" y2="147" gradientUnits="userSpaceOnUse">
<stop stop-color="#99F897"/>
<stop offset="0.520833" stop-color="#2D7B9C"/>
<stop offset="1" stop-color="#1F4DC2"/>
</linearGradient>
<linearGradient id="paint8_linear_66_2331" x1="119.919" y1="4.29677" x2="119.919" y2="55.6323" gradientUnits="userSpaceOnUse">
<stop stop-color="#99F897"/>
<stop offset="0.520833" stop-color="#2D7B9C"/>
<stop offset="1" stop-color="#1F4DC2"/>
</linearGradient>
<linearGradient id="paint9_linear_66_2331" x1="29.9654" y1="3.35489" x2="29.9654" y2="52.8065" gradientUnits="userSpaceOnUse">
<stop stop-color="#99F897"/>
<stop offset="0.520833" stop-color="#2D7B9C"/>
<stop offset="1" stop-color="#1F4DC2"/>
</linearGradient>
<linearGradient id="paint10_linear_66_2331" x1="28.0798" y1="92.3677" x2="28.0798" y2="143.703" gradientUnits="userSpaceOnUse">
<stop stop-color="#99F897"/>
<stop offset="0.520833" stop-color="#2D7B9C"/>
<stop offset="1" stop-color="#1F4DC2"/>
</linearGradient>
<linearGradient id="paint11_linear_66_2331" x1="118.035" y1="95.1937" x2="118.035" y2="144.645" gradientUnits="userSpaceOnUse">
<stop stop-color="#99F897"/>
<stop offset="0.520833" stop-color="#2D7B9C"/>
<stop offset="1" stop-color="#1F4DC2"/>
</linearGradient>
<linearGradient id="paint12_linear_66_2331" x1="56.5937" y1="38.2672" x2="73.7239" y2="110.766" gradientUnits="userSpaceOnUse">
<stop stop-color="#3CF338"/>
<stop offset="0.9999" stop-color="#7658F0"/>
</linearGradient>
</defs>
</svg>
