<svg width="174" height="127" viewBox="0 0 174 127" fill="none" xmlns="http://www.w3.org/2000/svg">
<path fill-rule="evenodd" clip-rule="evenodd" d="M58.9197 103.401C59.4582 105.098 59.7486 106.906 59.7486 108.782C59.7486 118.603 51.7872 126.565 41.9663 126.565H17.7824C7.96156 126.565 0.000160217 118.603 0.000160217 108.782C0.000160217 98.9614 7.96157 91 17.7825 91H41.9663C45.6044 91 48.9873 92.0925 51.8048 93.9674C53.3472 92.6359 58.0756 90.2949 64.8691 91.4271C62.9249 91.8539 59.0366 94.5568 59.0366 101.954C59.0366 102.524 58.9961 103.003 58.9197 103.401Z" fill="url(#paint0_linear_66_292)"/>
<circle cx="2.98742" cy="2.98742" r="2.98742" transform="matrix(-1 0 0 1 45.5225 106.933)" fill="#14151F"/>
<circle cx="2.98742" cy="2.98742" r="2.98742" transform="matrix(-1 0 0 1 32.7192 106.933)" fill="#14151F"/>
<circle cx="2.98742" cy="2.98742" r="2.98742" transform="matrix(-1 0 0 1 20.4849 106.933)" fill="#14151F"/>
<path fill-rule="evenodd" clip-rule="evenodd" d="M75.0252 3.0938C63.4217 -3.26724 48.8586 0.982601 42.4976 12.5861L29.9544 35.4667C23.5934 47.0702 27.8432 61.6333 39.4467 67.9944L39.4533 67.998L35.5243 81.9773C34.7401 84.7676 37.6717 87.1439 40.2392 85.7991L54.9799 78.0784C55.4428 77.8359 55.8178 77.5067 56.1017 77.1246L125.339 115.081C136.942 121.442 151.506 117.192 157.867 105.588L170.41 82.7077C176.771 71.1042 172.521 56.5411 160.918 50.18L75.0252 3.0938Z" fill="url(#paint1_linear_66_292)"/>
<rect x="48.5115" y="24.6072" width="1.36027" height="12.0785" transform="rotate(29.2147 48.5115 24.6072)" fill="url(#paint2_linear_66_292)"/>
<rect x="53.4094" y="23.5291" width="1.36027" height="18.3187" transform="rotate(29.2147 53.4094 23.5291)" fill="url(#paint3_linear_66_292)"/>
<rect x="57.4949" y="23.9044" width="1.36027" height="21.658" transform="rotate(29.2147 57.4949 23.9044)" fill="url(#paint4_linear_66_292)"/>
<rect x="61.1729" y="25.0065" width="1.36027" height="23.3239" transform="rotate(29.2147 61.1729 25.0065)" fill="url(#paint5_linear_66_292)"/>
<rect x="64.0374" y="27.5633" width="1.36027" height="21.8931" transform="rotate(29.2147 64.0374 27.5633)" fill="url(#paint6_linear_66_292)"/>
<rect x="66.2935" y="31.2107" width="1.36027" height="17.9095" transform="rotate(29.2147 66.2935 31.2107)" fill="url(#paint7_linear_66_292)"/>
<rect x="70.3779" y="31.5861" width="1.36027" height="20.4085" transform="rotate(29.2147 70.3779 31.5861)" fill="url(#paint8_linear_66_292)"/>
<rect x="74.2593" y="32.325" width="1.36027" height="22.9074" transform="rotate(29.2147 74.2593 32.325)" fill="url(#paint9_linear_66_292)"/>
<rect x="78.3442" y="32.7006" width="1.36027" height="26.2394" transform="rotate(29.2147 78.3442 32.7006)" fill="url(#paint10_linear_66_292)"/>
<rect x="82.2251" y="33.4397" width="1.36027" height="28.7384" transform="rotate(29.2147 82.2251 33.4397)" fill="url(#paint11_linear_66_292)"/>
<rect x="85.7012" y="34.9058" width="1.36027" height="29.9355" transform="rotate(29.2147 85.7012 34.9058)" fill="url(#paint12_linear_66_292)"/>
<rect x="90.1924" y="34.5538" width="1.36027" height="35.2971" transform="rotate(29.2147 90.1924 34.5538)" fill="url(#paint13_linear_66_292)"/>
<rect x="93.8704" y="35.6568" width="1.36027" height="37.0843" transform="rotate(29.2147 93.8704 35.6568)" fill="url(#paint14_linear_66_292)"/>
<rect x="95.5828" y="40.2737" width="1.36027" height="30.2645" transform="rotate(29.2147 95.5828 40.2737)" fill="url(#paint15_linear_66_292)"/>
<rect x="97.0845" y="45.2693" width="1.36027" height="23.0098" transform="rotate(29.2147 97.0845 45.2693)" fill="url(#paint16_linear_66_292)"/>
<rect x="98.8618" y="49.7717" width="1.36027" height="16.8849" transform="rotate(29.2147 98.8618 49.7717)" fill="url(#paint17_linear_66_292)"/>
<rect x="101.062" y="53.5168" width="1.36027" height="12.495" transform="rotate(29.2147 101.062 53.5168)" fill="url(#paint18_linear_66_292)"/>
<rect x="103.521" y="56.801" width="1.36027" height="9.16298" transform="rotate(29.2147 103.521 56.801)" fill="url(#paint19_linear_66_292)"/>
<rect x="106.182" y="59.7208" width="1.36027" height="6.66398" transform="rotate(29.2147 106.182 59.7208)" fill="url(#paint20_linear_66_292)"/>
<rect x="109.047" y="62.2775" width="1.36027" height="4.99799" transform="rotate(29.2147 109.047 62.2775)" fill="url(#paint21_linear_66_292)"/>
<rect x="113.742" y="61.5626" width="1.36027" height="10.829" transform="rotate(29.2147 113.742 61.5626)" fill="url(#paint22_linear_66_292)"/>
<rect x="118.03" y="61.5745" width="1.36027" height="14.994" transform="rotate(29.2147 118.03 61.5745)" fill="url(#paint23_linear_66_292)"/>
<rect x="122.724" y="60.8593" width="1.36027" height="20.825" transform="rotate(29.2147 122.724 60.8593)" fill="url(#paint24_linear_66_292)"/>
<rect x="127.419" y="60.1442" width="1.36027" height="26.6559" transform="rotate(29.2147 127.419 60.1442)" fill="url(#paint25_linear_66_292)"/>
<rect x="132.317" y="59.0654" width="1.36027" height="33.3199" transform="rotate(29.2147 132.317 59.0654)" fill="url(#paint26_linear_66_292)"/>
<rect x="136.402" y="59.441" width="1.36027" height="36.6519" transform="rotate(29.2147 136.402 59.441)" fill="url(#paint27_linear_66_292)"/>
<rect x="138.861" y="62.7249" width="1.36027" height="33.3199" transform="rotate(29.2147 138.861 62.7249)" fill="url(#paint28_linear_66_292)"/>
<rect x="141.319" y="66.0084" width="1.36027" height="29.9879" transform="rotate(29.2147 141.319 66.0084)" fill="url(#paint29_linear_66_292)"/>
<rect x="143.371" y="70.0189" width="1.36027" height="24.9899" transform="rotate(29.2147 143.371 70.0189)" fill="url(#paint30_linear_66_292)"/>
<rect x="145.423" y="74.0298" width="1.36027" height="19.992" transform="rotate(29.2147 145.423 74.0298)" fill="url(#paint31_linear_66_292)"/>
<rect x="147.678" y="77.677" width="1.36027" height="15.827" transform="rotate(29.2147 147.678 77.677)" fill="url(#paint32_linear_66_292)"/>
<rect x="148.917" y="83.1421" width="1.36027" height="7.49698" transform="rotate(29.2147 148.917 83.1421)" fill="url(#paint33_linear_66_292)"/>
<rect x="151.173" y="86.789" width="1.36027" height="3.33199" transform="rotate(29.2147 151.173 86.789)" fill="url(#paint34_linear_66_292)"/>
<rect x="154.037" y="89.3456" width="1.36027" height="1.666" transform="rotate(29.2147 154.037 89.3456)" fill="url(#paint35_linear_66_292)"/>
<defs>
<linearGradient id="paint0_linear_66_292" x1="58.7107" y1="83.0787" x2="17.7064" y2="132.936" gradientUnits="userSpaceOnUse">
<stop stop-color="#8569F5"/>
<stop offset="1" stop-color="#6CDB38"/>
</linearGradient>
<linearGradient id="paint1_linear_66_292" x1="30.7277" y1="-67.8904" x2="155.604" y2="143.654" gradientUnits="userSpaceOnUse">
<stop offset="0.192708" stop-color="#F5316C"/>
<stop offset="0.484375" stop-color="#F63770"/>
<stop offset="1" stop-color="#A75DB3"/>
</linearGradient>
<linearGradient id="paint2_linear_66_292" x1="48.7386" y1="25.6543" x2="49.8241" y2="25.6707" gradientUnits="userSpaceOnUse">
<stop stop-color="white"/>
<stop offset="1" stop-color="white" stop-opacity="0"/>
</linearGradient>
<linearGradient id="paint3_linear_66_292" x1="53.6365" y1="25.1171" x2="54.7222" y2="25.1279" gradientUnits="userSpaceOnUse">
<stop stop-color="white"/>
<stop offset="1" stop-color="white" stop-opacity="0"/>
</linearGradient>
<linearGradient id="paint4_linear_66_292" x1="57.722" y1="25.7819" x2="58.8076" y2="25.7911" gradientUnits="userSpaceOnUse">
<stop stop-color="white"/>
<stop offset="1" stop-color="white" stop-opacity="0"/>
</linearGradient>
<linearGradient id="paint5_linear_66_292" x1="61.4" y1="27.0285" x2="62.4856" y2="27.037" gradientUnits="userSpaceOnUse">
<stop stop-color="white"/>
<stop offset="1" stop-color="white" stop-opacity="0"/>
</linearGradient>
<linearGradient id="paint6_linear_66_292" x1="64.2645" y1="29.4612" x2="65.3501" y2="29.4702" gradientUnits="userSpaceOnUse">
<stop stop-color="white"/>
<stop offset="1" stop-color="white" stop-opacity="0"/>
</linearGradient>
<linearGradient id="paint7_linear_66_292" x1="66.5206" y1="32.7633" x2="67.6062" y2="32.7743" gradientUnits="userSpaceOnUse">
<stop stop-color="white"/>
<stop offset="1" stop-color="white" stop-opacity="0"/>
</linearGradient>
<linearGradient id="paint8_linear_66_292" x1="70.605" y1="33.3553" x2="71.6907" y2="33.365" gradientUnits="userSpaceOnUse">
<stop stop-color="white"/>
<stop offset="1" stop-color="white" stop-opacity="0"/>
</linearGradient>
<linearGradient id="paint9_linear_66_292" x1="74.4864" y1="34.3109" x2="75.5721" y2="34.3195" gradientUnits="userSpaceOnUse">
<stop stop-color="white"/>
<stop offset="1" stop-color="white" stop-opacity="0"/>
</linearGradient>
<linearGradient id="paint10_linear_66_292" x1="78.5714" y1="34.9753" x2="79.657" y2="34.9829" gradientUnits="userSpaceOnUse">
<stop stop-color="white"/>
<stop offset="1" stop-color="white" stop-opacity="0"/>
</linearGradient>
<linearGradient id="paint11_linear_66_292" x1="82.4522" y1="35.931" x2="83.5379" y2="35.9379" gradientUnits="userSpaceOnUse">
<stop stop-color="white"/>
<stop offset="1" stop-color="white" stop-opacity="0"/>
</linearGradient>
<linearGradient id="paint12_linear_66_292" x1="85.9283" y1="37.5009" x2="87.014" y2="37.5075" gradientUnits="userSpaceOnUse">
<stop stop-color="white"/>
<stop offset="1" stop-color="white" stop-opacity="0"/>
</linearGradient>
<linearGradient id="paint13_linear_66_292" x1="90.4195" y1="37.6137" x2="91.5052" y2="37.6193" gradientUnits="userSpaceOnUse">
<stop stop-color="white"/>
<stop offset="1" stop-color="white" stop-opacity="0"/>
</linearGradient>
<linearGradient id="paint14_linear_66_292" x1="94.0975" y1="38.8716" x2="95.1832" y2="38.877" gradientUnits="userSpaceOnUse">
<stop stop-color="white"/>
<stop offset="1" stop-color="white" stop-opacity="0"/>
</linearGradient>
<linearGradient id="paint15_linear_66_292" x1="95.8099" y1="42.8973" x2="96.8956" y2="42.9038" gradientUnits="userSpaceOnUse">
<stop stop-color="white"/>
<stop offset="1" stop-color="white" stop-opacity="0"/>
</linearGradient>
<linearGradient id="paint16_linear_66_292" x1="97.3116" y1="47.264" x2="98.3972" y2="47.2726" gradientUnits="userSpaceOnUse">
<stop stop-color="white"/>
<stop offset="1" stop-color="white" stop-opacity="0"/>
</linearGradient>
<linearGradient id="paint17_linear_66_292" x1="99.0889" y1="51.2354" x2="100.175" y2="51.2471" gradientUnits="userSpaceOnUse">
<stop stop-color="white"/>
<stop offset="1" stop-color="white" stop-opacity="0"/>
</linearGradient>
<linearGradient id="paint18_linear_66_292" x1="101.289" y1="54.6" x2="102.374" y2="54.6159" gradientUnits="userSpaceOnUse">
<stop stop-color="white"/>
<stop offset="1" stop-color="white" stop-opacity="0"/>
</linearGradient>
<linearGradient id="paint19_linear_66_292" x1="103.748" y1="57.5953" x2="104.833" y2="57.6169" gradientUnits="userSpaceOnUse">
<stop stop-color="white"/>
<stop offset="1" stop-color="white" stop-opacity="0"/>
</linearGradient>
<linearGradient id="paint20_linear_66_292" x1="106.409" y1="60.2985" x2="107.494" y2="60.3282" gradientUnits="userSpaceOnUse">
<stop stop-color="white"/>
<stop offset="1" stop-color="white" stop-opacity="0"/>
</linearGradient>
<linearGradient id="paint21_linear_66_292" x1="109.274" y1="62.7108" x2="110.358" y2="62.7504" gradientUnits="userSpaceOnUse">
<stop stop-color="white"/>
<stop offset="1" stop-color="white" stop-opacity="0"/>
</linearGradient>
<linearGradient id="paint22_linear_66_292" x1="113.969" y1="62.5013" x2="115.054" y2="62.5196" gradientUnits="userSpaceOnUse">
<stop stop-color="white"/>
<stop offset="1" stop-color="white" stop-opacity="0"/>
</linearGradient>
<linearGradient id="paint23_linear_66_292" x1="118.257" y1="62.8743" x2="119.343" y2="62.8876" gradientUnits="userSpaceOnUse">
<stop stop-color="white"/>
<stop offset="1" stop-color="white" stop-opacity="0"/>
</linearGradient>
<linearGradient id="paint24_linear_66_292" x1="122.951" y1="62.6646" x2="124.037" y2="62.6741" gradientUnits="userSpaceOnUse">
<stop stop-color="white"/>
<stop offset="1" stop-color="white" stop-opacity="0"/>
</linearGradient>
<linearGradient id="paint25_linear_66_292" x1="127.646" y1="62.455" x2="128.732" y2="62.4625" gradientUnits="userSpaceOnUse">
<stop stop-color="white"/>
<stop offset="1" stop-color="white" stop-opacity="0"/>
</linearGradient>
<linearGradient id="paint26_linear_66_292" x1="132.545" y1="61.9539" x2="133.63" y2="61.9599" gradientUnits="userSpaceOnUse">
<stop stop-color="white"/>
<stop offset="1" stop-color="white" stop-opacity="0"/>
</linearGradient>
<linearGradient id="paint27_linear_66_292" x1="136.629" y1="62.6183" x2="137.715" y2="62.6237" gradientUnits="userSpaceOnUse">
<stop stop-color="white"/>
<stop offset="1" stop-color="white" stop-opacity="0"/>
</linearGradient>
<linearGradient id="paint28_linear_66_292" x1="139.088" y1="65.6134" x2="140.174" y2="65.6193" gradientUnits="userSpaceOnUse">
<stop stop-color="white"/>
<stop offset="1" stop-color="white" stop-opacity="0"/>
</linearGradient>
<linearGradient id="paint29_linear_66_292" x1="141.546" y1="68.6081" x2="142.632" y2="68.6147" gradientUnits="userSpaceOnUse">
<stop stop-color="white"/>
<stop offset="1" stop-color="white" stop-opacity="0"/>
</linearGradient>
<linearGradient id="paint30_linear_66_292" x1="143.598" y1="72.1852" x2="144.684" y2="72.1932" gradientUnits="userSpaceOnUse">
<stop stop-color="white"/>
<stop offset="1" stop-color="white" stop-opacity="0"/>
</linearGradient>
<linearGradient id="paint31_linear_66_292" x1="145.65" y1="75.7629" x2="146.736" y2="75.7728" gradientUnits="userSpaceOnUse">
<stop stop-color="white"/>
<stop offset="1" stop-color="white" stop-opacity="0"/>
</linearGradient>
<linearGradient id="paint32_linear_66_292" x1="147.906" y1="79.049" x2="148.991" y2="79.0615" gradientUnits="userSpaceOnUse">
<stop stop-color="white"/>
<stop offset="1" stop-color="white" stop-opacity="0"/>
</linearGradient>
<linearGradient id="paint33_linear_66_292" x1="149.144" y1="83.792" x2="150.229" y2="83.8184" gradientUnits="userSpaceOnUse">
<stop stop-color="white"/>
<stop offset="1" stop-color="white" stop-opacity="0"/>
</linearGradient>
<linearGradient id="paint34_linear_66_292" x1="151.4" y1="87.0779" x2="152.482" y2="87.1371" gradientUnits="userSpaceOnUse">
<stop stop-color="white"/>
<stop offset="1" stop-color="white" stop-opacity="0"/>
</linearGradient>
<linearGradient id="paint35_linear_66_292" x1="154.264" y1="89.4901" x2="155.337" y2="89.6075" gradientUnits="userSpaceOnUse">
<stop stop-color="white"/>
<stop offset="1" stop-color="white" stop-opacity="0"/>
</linearGradient>
</defs>
</svg>
