<svg width="498" height="345" viewBox="0 0 498 345" fill="none" xmlns="http://www.w3.org/2000/svg">
<rect x="71.9563" y="49.7161" width="400.038" height="223.348" rx="39.7743" fill="url(#paint0_radial_66_2174)"/>
<rect x="71.9563" y="49.7161" width="400.038" height="223.348" rx="39.7743" stroke="url(#paint1_linear_66_2174)" stroke-width="1.52978"/>
<rect x="71.9563" y="49.7161" width="400.038" height="223.348" rx="39.7743" stroke="url(#paint2_linear_66_2174)" stroke-width="1.52978"/>
<mask id="mask0_66_2174" style="mask-type:alpha" maskUnits="userSpaceOnUse" x="71" y="48" width="402" height="226">
<rect x="71.9563" y="49.7161" width="400.038" height="223.348" rx="39.7743" fill="url(#paint3_linear_66_2174)"/>
<rect x="71.9563" y="49.7161" width="400.038" height="223.348" rx="39.7743" stroke="url(#paint4_linear_66_2174)" stroke-width="1.52978"/>
<rect x="71.9563" y="49.7161" width="400.038" height="223.348" rx="39.7743" stroke="url(#paint5_linear_66_2174)" stroke-width="1.52978"/>
</mask>
<g mask="url(#mask0_66_2174)">
<g filter="url(#filter0_f_66_2174)">
<path d="M79.9875 230.613V89.8727C79.9875 76.8695 83.0471 76.1048 91.0785 67.3086C97.5035 60.2716 111.858 55.9627 118.232 54.6879C208.617 55.3252 397.035 56.5235 427.63 56.2176C458.226 55.9116 463.835 85.6658 462.815 100.581C463.962 138.826 465.569 219.675 462.815 237.114C460.062 254.554 436.426 263.248 424.953 265.415C331.636 265.67 139.343 266.027 116.702 265.415C94.0615 264.803 82.7921 241.958 79.9875 230.613Z" fill="url(#paint6_linear_66_2174)"/>
<path d="M79.9875 230.613V89.8727C79.9875 76.8695 83.0471 76.1048 91.0785 67.3086C97.5035 60.2716 111.858 55.9627 118.232 54.6879C208.617 55.3252 397.035 56.5235 427.63 56.2176C458.226 55.9116 463.835 85.6658 462.815 100.581C463.962 138.826 465.569 219.675 462.815 237.114C460.062 254.554 436.426 263.248 424.953 265.415C331.636 265.67 139.343 266.027 116.702 265.415C94.0615 264.803 82.7921 241.958 79.9875 230.613Z" stroke="white" stroke-width="0.76489"/>
</g>
<g filter="url(#filter1_f_66_2174)">
<path d="M73.4858 236.389V86.4386C73.4858 72.5844 76.6642 71.7697 85.0074 62.3978C91.682 54.9003 106.594 50.3094 113.215 48.9512C207.11 49.6303 402.844 50.907 434.628 50.581C466.412 50.255 472.239 81.9564 471.179 97.8479C472.371 138.595 474.04 224.735 471.179 243.316C468.319 261.897 443.766 271.16 431.847 273.469C334.907 273.741 135.146 274.121 111.626 273.469C88.1063 272.817 76.3993 248.477 73.4858 236.389Z" fill="url(#paint7_linear_66_2174)"/>
<path d="M73.4858 236.389V86.4386C73.4858 72.5844 76.6642 71.7697 85.0074 62.3978C91.682 54.9003 106.594 50.3094 113.215 48.9512C207.11 49.6303 402.844 50.907 434.628 50.581C466.412 50.255 472.239 81.9564 471.179 97.8479C472.371 138.595 474.04 224.735 471.179 243.316C468.319 261.897 443.766 271.16 431.847 273.469C334.907 273.741 135.146 274.121 111.626 273.469C88.1063 272.817 76.3993 248.477 73.4858 236.389Z" stroke="#43D6F7" stroke-width="3.05956"/>
</g>
<g opacity="0.8" filter="url(#filter2_f_66_2174)">
<path d="M83.4294 229.246V93.5769C83.4294 81.0422 86.4495 80.305 94.3772 71.8257C100.719 65.0422 114.888 60.8886 121.18 59.6597C210.398 60.2741 396.383 61.4292 426.584 61.1343C456.784 60.8393 462.321 89.5216 461.314 103.9C462.447 140.766 464.032 218.702 461.314 235.513C458.596 252.325 435.266 260.706 423.941 262.795C331.829 263.041 142.019 263.385 119.67 262.795C97.3217 262.205 86.1978 240.183 83.4294 229.246Z" fill="url(#paint8_linear_66_2174)"/>
<path d="M83.4294 229.246V93.5769C83.4294 81.0422 86.4495 80.305 94.3772 71.8257C100.719 65.0422 114.888 60.8886 121.18 59.6597C210.398 60.2741 396.383 61.4292 426.584 61.1343C456.784 60.8393 462.321 89.5216 461.314 103.9C462.447 140.766 464.032 218.702 461.314 235.513C458.596 252.325 435.266 260.706 423.941 262.795C331.829 263.041 142.019 263.385 119.67 262.795C97.3217 262.205 86.1978 240.183 83.4294 229.246Z" stroke="#06081C" stroke-width="3.05956"/>
</g>
</g>
<g filter="url(#filter3_d_66_2174)">
<rect x="164.508" y="94.0796" width="259.298" height="10.7085" rx="3.82445" fill="url(#paint9_linear_66_2174)"/>
</g>
<rect x="111.73" y="94.0797" width="14.5329" height="10.7085" rx="3.82445" fill="url(#paint10_linear_66_2174)"/>
<rect x="111.73" y="113.202" width="26.0063" height="10.7085" rx="3.82445" fill="url(#paint11_linear_66_2174)"/>
<rect x="111.73" y="132.324" width="17.5925" height="10.7085" rx="3.82445" fill="url(#paint12_linear_66_2174)"/>
<rect x="111.73" y="168.274" width="21.4169" height="10.7085" rx="3.82445" fill="url(#paint13_linear_66_2174)"/>
<rect x="111.73" y="189.691" width="28.3009" height="10.7085" rx="3.82445" fill="url(#paint14_linear_66_2174)"/>
<rect x="111.73" y="221.051" width="28.3009" height="10.7085" rx="3.82445" fill="url(#paint15_linear_66_2174)"/>
<g filter="url(#filter4_d_66_2174)">
<rect x="164.508" y="113.202" width="159.862" height="10.7085" rx="3.82445" fill="url(#paint16_linear_66_2174)"/>
</g>
<g filter="url(#filter5_d_66_2174)">
<rect x="164.508" y="221.051" width="159.862" height="10.7085" rx="3.82445" fill="url(#paint17_linear_66_2174)"/>
</g>
<g filter="url(#filter6_d_66_2174)">
<rect x="164.508" y="132.324" width="228.702" height="10.7085" rx="3.82445" fill="url(#paint18_linear_66_2174)"/>
</g>
<g filter="url(#filter7_d_66_2174)">
<rect x="164.508" y="170.569" width="74.9593" height="10.7085" rx="3.82445" fill="url(#paint19_linear_66_2174)"/>
</g>
<g filter="url(#filter8_d_66_2174)">
<rect x="164.508" y="151.446" width="259.298" height="10.7085" rx="3.82445" fill="url(#paint20_linear_66_2174)"/>
</g>
<g filter="url(#filter9_d_66_2174)">
<rect x="164.508" y="240.174" width="259.298" height="10.7085" rx="3.82445" fill="url(#paint21_linear_66_2174)"/>
</g>
<g filter="url(#filter10_d_66_2174)">
<rect x="164.508" y="189.691" width="182.809" height="10.7085" rx="3.82445" fill="url(#paint22_linear_66_2174)"/>
</g>
<g filter="url(#filter11_b_66_2174)">
<circle cx="448.665" cy="147.24" r="49.3354" fill="url(#paint23_linear_66_2174)" fill-opacity="0.4"/>
<circle cx="448.665" cy="147.24" r="48.953" stroke="url(#paint24_linear_66_2174)" stroke-width="0.76489"/>
</g>
<g filter="url(#filter12_d_66_2174)">
<path d="M425.649 149.101L438.388 153.707V159.136L421.082 151.805V147.959L425.649 149.101ZM438.388 145.335L425.629 150.022L421.082 151.104V147.258L438.388 139.927V145.335ZM455.614 132.836L444.918 164.504H440.631L451.327 132.836H455.614ZM471.358 149.902L458.518 145.315V139.927L475.965 147.258V151.124L471.358 149.902ZM458.518 153.748L471.378 149.06L475.965 147.959V151.805L458.518 159.136V153.748Z" fill="url(#paint25_radial_66_2174)"/>
</g>
<g filter="url(#filter13_d_66_2174)">
<circle cx="117.467" cy="69.9857" r="5.73668" fill="url(#paint26_linear_66_2174)"/>
</g>
<g filter="url(#filter14_d_66_2174)">
<ellipse cx="136.207" cy="69.9857" rx="5.35423" ry="5.73668" fill="url(#paint27_linear_66_2174)"/>
</g>
<g filter="url(#filter15_d_66_2174)">
<circle cx="154.947" cy="69.9857" r="5.73668" fill="url(#paint28_linear_66_2174)"/>
</g>
<g filter="url(#filter16_f_66_2174)">
<path d="M84.9592 81.8414L84.9592 239.409" stroke="url(#paint29_linear_66_2174)" stroke-width="1.52978"/>
</g>
<g opacity="0.6" filter="url(#filter17_f_66_2174)">
<path d="M453.636 69.6033L287.655 69.6033" stroke="url(#paint30_linear_66_2174)" stroke-width="11.4734"/>
</g>
<rect x="10.7649" y="147.622" width="137.68" height="91.7868" rx="9.94357" fill="url(#paint31_radial_66_2174)"/>
<rect x="10.7649" y="147.622" width="137.68" height="91.7868" rx="9.94357" stroke="url(#paint32_linear_66_2174)" stroke-width="1.52978"/>
<rect x="10.7649" y="147.622" width="137.68" height="91.7868" rx="9.94357" stroke="url(#paint33_linear_66_2174)" stroke-width="1.52978"/>
<rect x="218.815" y="18.3556" width="137.68" height="91.7868" rx="9.94357" fill="url(#paint34_radial_66_2174)"/>
<rect x="218.815" y="18.3556" width="137.68" height="91.7868" rx="9.94357" stroke="url(#paint35_linear_66_2174)" stroke-width="1.52978"/>
<rect x="218.815" y="18.3556" width="137.68" height="91.7868" rx="9.94357" stroke="url(#paint36_linear_66_2174)" stroke-width="1.52978"/>
<rect x="294.539" y="232.525" width="137.68" height="91.7868" rx="9.94357" fill="url(#paint37_radial_66_2174)"/>
<rect x="294.539" y="232.525" width="137.68" height="91.7868" rx="9.94357" stroke="url(#paint38_linear_66_2174)" stroke-width="1.52978"/>
<rect x="294.539" y="232.525" width="137.68" height="91.7868" rx="9.94357" stroke="url(#paint39_linear_66_2174)" stroke-width="1.52978"/>
<g filter="url(#filter18_d_66_2174)">
<path d="M262.422 72.6778H268.999C268.867 74.8335 268.273 76.7472 267.217 78.419C266.176 80.0907 264.717 81.3959 262.84 82.3344C260.977 83.2729 258.734 83.7422 256.109 83.7422C254.056 83.7422 252.215 83.3902 250.588 82.6863C248.96 81.9678 247.567 80.9413 246.408 79.6068C245.264 78.2723 244.392 76.6592 243.791 74.7675C243.189 72.8758 242.889 70.7568 242.889 68.4104V66.1888C242.889 63.8424 243.197 61.7234 243.813 59.8317C244.443 57.9253 245.338 56.3049 246.496 54.9704C247.669 53.6359 249.07 52.6094 250.698 51.8909C252.325 51.1723 254.144 50.813 256.153 50.813C258.822 50.813 261.073 51.2969 262.906 52.2648C264.754 53.2327 266.183 54.5671 267.195 56.2682C268.222 57.9693 268.838 59.905 269.043 62.0754H262.444C262.371 60.7849 262.114 59.6924 261.674 58.7978C261.234 57.8886 260.567 57.2067 259.672 56.7521C258.792 56.2829 257.619 56.0482 256.153 56.0482C255.053 56.0482 254.092 56.2535 253.271 56.6642C252.45 57.0748 251.761 57.698 251.204 58.5339C250.646 59.3698 250.228 60.4256 249.95 61.7014C249.686 62.9626 249.554 64.4437 249.554 66.1448V68.4104C249.554 70.0675 249.678 71.5266 249.928 72.7878C250.177 74.0343 250.558 75.0901 251.072 75.9553C251.6 76.8059 252.274 77.4511 253.095 77.891C253.931 78.3163 254.936 78.5289 256.109 78.5289C257.487 78.5289 258.624 78.309 259.518 77.869C260.413 77.4291 261.095 76.7765 261.564 75.9113C262.048 75.0461 262.334 73.9683 262.422 72.6778ZM304.876 65.4629V70.9841H282.923V65.4629H304.876ZM296.913 56.7741V80.0907H290.908V56.7741H296.913ZM332.593 65.4629V70.9841H310.64V65.4629H332.593ZM324.63 56.7741V80.0907H318.625V56.7741H324.63Z" fill="url(#paint40_radial_66_2174)"/>
</g>
<g filter="url(#filter19_d_66_2174)">
<path d="M333.583 285.29H325.422V280.143H333.583C334.844 280.143 335.87 279.938 336.662 279.527C337.454 279.102 338.033 278.515 338.4 277.767C338.767 277.02 338.95 276.176 338.95 275.238C338.95 274.285 338.767 273.397 338.4 272.576C338.033 271.755 337.454 271.095 336.662 270.596C335.87 270.098 334.844 269.849 333.583 269.849H327.71V296.707H321.111V264.679H333.583C336.09 264.679 338.239 265.134 340.028 266.043C341.832 266.938 343.21 268.177 344.163 269.761C345.116 271.344 345.593 273.155 345.593 275.194C345.593 277.262 345.116 279.051 344.163 280.561C343.21 282.071 341.832 283.237 340.028 284.059C338.239 284.88 336.09 285.29 333.583 285.29ZM371.505 277.723V282.871H354.788V277.723H371.505ZM356.745 264.679V296.707H350.146V264.679H356.745ZM376.212 264.679V296.707H369.635V264.679H376.212ZM394.426 285.29H386.265V280.143H394.426C395.687 280.143 396.713 279.938 397.505 279.527C398.297 279.102 398.876 278.515 399.243 277.767C399.61 277.02 399.793 276.176 399.793 275.238C399.793 274.285 399.61 273.397 399.243 272.576C398.876 271.755 398.297 271.095 397.505 270.596C396.713 270.098 395.687 269.849 394.426 269.849H388.553V296.707H381.954V264.679H394.426C396.933 264.679 399.082 265.134 400.871 266.043C402.675 266.938 404.053 268.177 405.006 269.761C405.959 271.344 406.436 273.155 406.436 275.194C406.436 277.262 405.959 279.051 405.006 280.561C404.053 282.071 402.675 283.237 400.871 284.059C399.082 284.88 396.933 285.29 394.426 285.29Z" fill="url(#paint41_radial_66_2174)"/>
</g>
<g opacity="0.6" filter="url(#filter20_f_66_2174)">
<path d="M420.746 59.5904C429.075 58.3992 440.993 58.5304 451.41 66.4473C460.971 73.7138 464.565 94.5252 463.197 92.1675" stroke="url(#paint42_linear_66_2174)" stroke-width="4.5556"/>
</g>
<g opacity="0.2" filter="url(#filter21_f_66_2174)">
<path d="M294.539 25.622C302.868 24.4309 344.238 25.4397 347.316 25.622C347.316 25.622 350.214 68.1365 348.847 65.7787" stroke="url(#paint43_linear_66_2174)" stroke-width="4.5556"/>
</g>
<g opacity="0.2" filter="url(#filter22_f_66_2174)">
<path d="M370.198 240.622C378.526 239.431 419.897 240.44 422.975 240.622C422.975 240.622 425.873 283.136 424.505 280.779" stroke="url(#paint44_linear_66_2174)" stroke-width="4.5556"/>
</g>
<g opacity="0.2" filter="url(#filter23_f_66_2174)">
<path d="M87.1984 155.622C95.5267 154.431 136.897 155.44 139.975 155.622C139.975 155.622 142.873 198.136 141.506 195.779" stroke="url(#paint45_linear_66_2174)" stroke-width="4.5556"/>
</g>
<g opacity="0.2" filter="url(#filter24_f_66_2174)">
<path d="M281.04 104.639C272.628 104.818 231.032 101.939 227.999 101.387C227.999 101.387 226.925 57.7703 227.999 60.2758" stroke="url(#paint46_linear_66_2174)" stroke-width="4.5556"/>
</g>
<g opacity="0.2" filter="url(#filter25_f_66_2174)">
<path d="M356.698 319.639C348.287 319.818 306.691 316.939 303.658 316.387C303.658 316.387 302.584 272.77 303.658 275.276" stroke="url(#paint47_linear_66_2174)" stroke-width="4.5556"/>
</g>
<g opacity="0.2" filter="url(#filter26_f_66_2174)">
<path d="M73.6985 234.639C65.2873 234.818 23.6912 231.939 20.658 231.387C20.658 231.387 19.5842 187.77 20.658 190.276" stroke="url(#paint48_linear_66_2174)" stroke-width="4.5556"/>
</g>
<g filter="url(#filter27_d_66_2174)">
<path d="M46.8086 193.767V198.339H31.9601V193.767H46.8086ZM33.699 182.182V210.628H27.8377V182.182H33.699ZM50.9897 182.182V210.628H45.148V182.182H50.9897ZM68.2218 182.182V210.628H62.38V182.182H68.2218ZM76.9746 182.182V186.773H53.764V182.182H76.9746ZM82.9921 182.182H87.9546L95.2617 203.067L102.569 182.182H107.531L97.2545 210.628H93.2688L82.9921 182.182ZM80.3155 182.182H85.2585L86.1572 202.54V210.628H80.3155V182.182ZM105.265 182.182H110.227V210.628H104.366V202.54L105.265 182.182ZM133.653 206.057V210.628H119.332V206.057H133.653ZM121.227 182.182V210.628H115.366V182.182H121.227Z" fill="url(#paint49_radial_66_2174)"/>
</g>
<defs>
<filter id="filter0_f_66_2174" x="65.0723" y="39.7723" width="414.179" height="240.896" filterUnits="userSpaceOnUse" color-interpolation-filters="sRGB">
<feFlood flood-opacity="0" result="BackgroundImageFix"/>
<feBlend mode="normal" in="SourceGraphic" in2="BackgroundImageFix" result="shape"/>
<feGaussianBlur stdDeviation="7.26646" result="effect1_foregroundBlur_66_2174"/>
</filter>
<filter id="filter1_f_66_2174" x="62.7774" y="38.2416" width="420.69" height="246.296" filterUnits="userSpaceOnUse" color-interpolation-filters="sRGB">
<feFlood flood-opacity="0" result="BackgroundImageFix"/>
<feBlend mode="normal" in="SourceGraphic" in2="BackgroundImageFix" result="shape"/>
<feGaussianBlur stdDeviation="4.58934" result="effect1_foregroundBlur_66_2174"/>
</filter>
<filter id="filter2_f_66_2174" x="66.6019" y="42.8311" width="413.041" height="237.117" filterUnits="userSpaceOnUse" color-interpolation-filters="sRGB">
<feFlood flood-opacity="0" result="BackgroundImageFix"/>
<feBlend mode="normal" in="SourceGraphic" in2="BackgroundImageFix" result="shape"/>
<feGaussianBlur stdDeviation="7.6489" result="effect1_foregroundBlur_66_2174"/>
</filter>
<filter id="filter3_d_66_2174" x="160.683" y="91.7849" width="266.947" height="18.3574" filterUnits="userSpaceOnUse" color-interpolation-filters="sRGB">
<feFlood flood-opacity="0" result="BackgroundImageFix"/>
<feColorMatrix in="SourceAlpha" type="matrix" values="0 0 0 0 0 0 0 0 0 0 0 0 0 0 0 0 0 0 127 0" result="hardAlpha"/>
<feOffset dy="1.52978"/>
<feGaussianBlur stdDeviation="1.91223"/>
<feComposite in2="hardAlpha" operator="out"/>
<feColorMatrix type="matrix" values="0 0 0 0 0 0 0 0 0 0 0 0 0 0 0 0 0 0 0.25 0"/>
<feBlend mode="normal" in2="BackgroundImageFix" result="effect1_dropShadow_66_2174"/>
<feBlend mode="normal" in="SourceGraphic" in2="effect1_dropShadow_66_2174" result="shape"/>
</filter>
<filter id="filter4_d_66_2174" x="160.683" y="110.907" width="167.511" height="18.3573" filterUnits="userSpaceOnUse" color-interpolation-filters="sRGB">
<feFlood flood-opacity="0" result="BackgroundImageFix"/>
<feColorMatrix in="SourceAlpha" type="matrix" values="0 0 0 0 0 0 0 0 0 0 0 0 0 0 0 0 0 0 127 0" result="hardAlpha"/>
<feOffset dy="1.52978"/>
<feGaussianBlur stdDeviation="1.91223"/>
<feComposite in2="hardAlpha" operator="out"/>
<feColorMatrix type="matrix" values="0 0 0 0 0 0 0 0 0 0 0 0 0 0 0 0 0 0 0.25 0"/>
<feBlend mode="normal" in2="BackgroundImageFix" result="effect1_dropShadow_66_2174"/>
<feBlend mode="normal" in="SourceGraphic" in2="effect1_dropShadow_66_2174" result="shape"/>
</filter>
<filter id="filter5_d_66_2174" x="160.683" y="218.757" width="167.511" height="18.3573" filterUnits="userSpaceOnUse" color-interpolation-filters="sRGB">
<feFlood flood-opacity="0" result="BackgroundImageFix"/>
<feColorMatrix in="SourceAlpha" type="matrix" values="0 0 0 0 0 0 0 0 0 0 0 0 0 0 0 0 0 0 127 0" result="hardAlpha"/>
<feOffset dy="1.52978"/>
<feGaussianBlur stdDeviation="1.91223"/>
<feComposite in2="hardAlpha" operator="out"/>
<feColorMatrix type="matrix" values="0 0 0 0 0 0 0 0 0 0 0 0 0 0 0 0 0 0 0.25 0"/>
<feBlend mode="normal" in2="BackgroundImageFix" result="effect1_dropShadow_66_2174"/>
<feBlend mode="normal" in="SourceGraphic" in2="effect1_dropShadow_66_2174" result="shape"/>
</filter>
<filter id="filter6_d_66_2174" x="160.683" y="130.029" width="236.351" height="18.3573" filterUnits="userSpaceOnUse" color-interpolation-filters="sRGB">
<feFlood flood-opacity="0" result="BackgroundImageFix"/>
<feColorMatrix in="SourceAlpha" type="matrix" values="0 0 0 0 0 0 0 0 0 0 0 0 0 0 0 0 0 0 127 0" result="hardAlpha"/>
<feOffset dy="1.52978"/>
<feGaussianBlur stdDeviation="1.91223"/>
<feComposite in2="hardAlpha" operator="out"/>
<feColorMatrix type="matrix" values="0 0 0 0 0 0 0 0 0 0 0 0 0 0 0 0 0 0 0.25 0"/>
<feBlend mode="normal" in2="BackgroundImageFix" result="effect1_dropShadow_66_2174"/>
<feBlend mode="normal" in="SourceGraphic" in2="effect1_dropShadow_66_2174" result="shape"/>
</filter>
<filter id="filter7_d_66_2174" x="160.683" y="168.274" width="82.6081" height="18.3573" filterUnits="userSpaceOnUse" color-interpolation-filters="sRGB">
<feFlood flood-opacity="0" result="BackgroundImageFix"/>
<feColorMatrix in="SourceAlpha" type="matrix" values="0 0 0 0 0 0 0 0 0 0 0 0 0 0 0 0 0 0 127 0" result="hardAlpha"/>
<feOffset dy="1.52978"/>
<feGaussianBlur stdDeviation="1.91223"/>
<feComposite in2="hardAlpha" operator="out"/>
<feColorMatrix type="matrix" values="0 0 0 0 0 0 0 0 0 0 0 0 0 0 0 0 0 0 0.25 0"/>
<feBlend mode="normal" in2="BackgroundImageFix" result="effect1_dropShadow_66_2174"/>
<feBlend mode="normal" in="SourceGraphic" in2="effect1_dropShadow_66_2174" result="shape"/>
</filter>
<filter id="filter8_d_66_2174" x="160.683" y="149.152" width="266.947" height="18.3573" filterUnits="userSpaceOnUse" color-interpolation-filters="sRGB">
<feFlood flood-opacity="0" result="BackgroundImageFix"/>
<feColorMatrix in="SourceAlpha" type="matrix" values="0 0 0 0 0 0 0 0 0 0 0 0 0 0 0 0 0 0 127 0" result="hardAlpha"/>
<feOffset dy="1.52978"/>
<feGaussianBlur stdDeviation="1.91223"/>
<feComposite in2="hardAlpha" operator="out"/>
<feColorMatrix type="matrix" values="0 0 0 0 0 0 0 0 0 0 0 0 0 0 0 0 0 0 0.25 0"/>
<feBlend mode="normal" in2="BackgroundImageFix" result="effect1_dropShadow_66_2174"/>
<feBlend mode="normal" in="SourceGraphic" in2="effect1_dropShadow_66_2174" result="shape"/>
</filter>
<filter id="filter9_d_66_2174" x="160.683" y="237.879" width="266.947" height="18.3573" filterUnits="userSpaceOnUse" color-interpolation-filters="sRGB">
<feFlood flood-opacity="0" result="BackgroundImageFix"/>
<feColorMatrix in="SourceAlpha" type="matrix" values="0 0 0 0 0 0 0 0 0 0 0 0 0 0 0 0 0 0 127 0" result="hardAlpha"/>
<feOffset dy="1.52978"/>
<feGaussianBlur stdDeviation="1.91223"/>
<feComposite in2="hardAlpha" operator="out"/>
<feColorMatrix type="matrix" values="0 0 0 0 0 0 0 0 0 0 0 0 0 0 0 0 0 0 0.25 0"/>
<feBlend mode="normal" in2="BackgroundImageFix" result="effect1_dropShadow_66_2174"/>
<feBlend mode="normal" in="SourceGraphic" in2="effect1_dropShadow_66_2174" result="shape"/>
</filter>
<filter id="filter10_d_66_2174" x="160.683" y="187.396" width="190.458" height="18.3573" filterUnits="userSpaceOnUse" color-interpolation-filters="sRGB">
<feFlood flood-opacity="0" result="BackgroundImageFix"/>
<feColorMatrix in="SourceAlpha" type="matrix" values="0 0 0 0 0 0 0 0 0 0 0 0 0 0 0 0 0 0 127 0" result="hardAlpha"/>
<feOffset dy="1.52978"/>
<feGaussianBlur stdDeviation="1.91223"/>
<feComposite in2="hardAlpha" operator="out"/>
<feColorMatrix type="matrix" values="0 0 0 0 0 0 0 0 0 0 0 0 0 0 0 0 0 0 0.25 0"/>
<feBlend mode="normal" in2="BackgroundImageFix" result="effect1_dropShadow_66_2174"/>
<feBlend mode="normal" in="SourceGraphic" in2="effect1_dropShadow_66_2174" result="shape"/>
</filter>
<filter id="filter11_b_66_2174" x="389.386" y="87.9606" width="118.558" height="118.558" filterUnits="userSpaceOnUse" color-interpolation-filters="sRGB">
<feFlood flood-opacity="0" result="BackgroundImageFix"/>
<feGaussianBlur in="BackgroundImageFix" stdDeviation="4.97179"/>
<feComposite in2="SourceAlpha" operator="in" result="effect1_backgroundBlur_66_2174"/>
<feBlend mode="normal" in="SourceGraphic" in2="effect1_backgroundBlur_66_2174" result="shape"/>
</filter>
<filter id="filter12_d_66_2174" x="416.254" y="129.939" width="64.5389" height="41.3238" filterUnits="userSpaceOnUse" color-interpolation-filters="sRGB">
<feFlood flood-opacity="0" result="BackgroundImageFix"/>
<feColorMatrix in="SourceAlpha" type="matrix" values="0 0 0 0 0 0 0 0 0 0 0 0 0 0 0 0 0 0 127 0" result="hardAlpha"/>
<feOffset dy="1.93122"/>
<feGaussianBlur stdDeviation="2.41403"/>
<feComposite in2="hardAlpha" operator="out"/>
<feColorMatrix type="matrix" values="0 0 0 0 0 0 0 0 0 0 0 0 0 0 0 0 0 0 0.25 0"/>
<feBlend mode="normal" in2="BackgroundImageFix" result="effect1_dropShadow_66_2174"/>
<feBlend mode="normal" in="SourceGraphic" in2="effect1_dropShadow_66_2174" result="shape"/>
</filter>
<filter id="filter13_d_66_2174" x="107.906" y="61.9544" width="19.1223" height="19.1223" filterUnits="userSpaceOnUse" color-interpolation-filters="sRGB">
<feFlood flood-opacity="0" result="BackgroundImageFix"/>
<feColorMatrix in="SourceAlpha" type="matrix" values="0 0 0 0 0 0 0 0 0 0 0 0 0 0 0 0 0 0 127 0" result="hardAlpha"/>
<feOffset dy="1.52978"/>
<feGaussianBlur stdDeviation="1.91223"/>
<feComposite in2="hardAlpha" operator="out"/>
<feColorMatrix type="matrix" values="0 0 0 0 0 0 0 0 0 0 0 0 0 0 0 0 0 0 0.25 0"/>
<feBlend mode="normal" in2="BackgroundImageFix" result="effect1_dropShadow_66_2174"/>
<feBlend mode="normal" in="SourceGraphic" in2="effect1_dropShadow_66_2174" result="shape"/>
</filter>
<filter id="filter14_d_66_2174" x="127.028" y="61.9544" width="18.3574" height="19.1223" filterUnits="userSpaceOnUse" color-interpolation-filters="sRGB">
<feFlood flood-opacity="0" result="BackgroundImageFix"/>
<feColorMatrix in="SourceAlpha" type="matrix" values="0 0 0 0 0 0 0 0 0 0 0 0 0 0 0 0 0 0 127 0" result="hardAlpha"/>
<feOffset dy="1.52978"/>
<feGaussianBlur stdDeviation="1.91223"/>
<feComposite in2="hardAlpha" operator="out"/>
<feColorMatrix type="matrix" values="0 0 0 0 0 0 0 0 0 0 0 0 0 0 0 0 0 0 0.25 0"/>
<feBlend mode="normal" in2="BackgroundImageFix" result="effect1_dropShadow_66_2174"/>
<feBlend mode="normal" in="SourceGraphic" in2="effect1_dropShadow_66_2174" result="shape"/>
</filter>
<filter id="filter15_d_66_2174" x="145.386" y="61.9544" width="19.1223" height="19.1223" filterUnits="userSpaceOnUse" color-interpolation-filters="sRGB">
<feFlood flood-opacity="0" result="BackgroundImageFix"/>
<feColorMatrix in="SourceAlpha" type="matrix" values="0 0 0 0 0 0 0 0 0 0 0 0 0 0 0 0 0 0 127 0" result="hardAlpha"/>
<feOffset dy="1.52978"/>
<feGaussianBlur stdDeviation="1.91223"/>
<feComposite in2="hardAlpha" operator="out"/>
<feColorMatrix type="matrix" values="0 0 0 0 0 0 0 0 0 0 0 0 0 0 0 0 0 0 0.25 0"/>
<feBlend mode="normal" in2="BackgroundImageFix" result="effect1_dropShadow_66_2174"/>
<feBlend mode="normal" in="SourceGraphic" in2="effect1_dropShadow_66_2174" result="shape"/>
</filter>
<filter id="filter16_f_66_2174" x="69.6614" y="67.3085" width="30.5956" height="186.633" filterUnits="userSpaceOnUse" color-interpolation-filters="sRGB">
<feFlood flood-opacity="0" result="BackgroundImageFix"/>
<feBlend mode="normal" in="SourceGraphic" in2="BackgroundImageFix" result="shape"/>
<feGaussianBlur stdDeviation="7.26646" result="effect1_foregroundBlur_66_2174"/>
</filter>
<filter id="filter17_f_66_2174" x="271.593" y="47.8039" width="198.107" height="43.5988" filterUnits="userSpaceOnUse" color-interpolation-filters="sRGB">
<feFlood flood-opacity="0" result="BackgroundImageFix"/>
<feBlend mode="normal" in="SourceGraphic" in2="BackgroundImageFix" result="shape"/>
<feGaussianBlur stdDeviation="8.03135" result="effect1_foregroundBlur_66_2174"/>
</filter>
<filter id="filter18_d_66_2174" x="237.587" y="47.6317" width="100.309" height="43.5334" filterUnits="userSpaceOnUse" color-interpolation-filters="sRGB">
<feFlood flood-opacity="0" result="BackgroundImageFix"/>
<feColorMatrix in="SourceAlpha" type="matrix" values="0 0 0 0 0 0 0 0 0 0 0 0 0 0 0 0 0 0 127 0" result="hardAlpha"/>
<feOffset dy="2.12083"/>
<feGaussianBlur stdDeviation="2.65104"/>
<feComposite in2="hardAlpha" operator="out"/>
<feColorMatrix type="matrix" values="0 0 0 0 0 0 0 0 0 0 0 0 0 0 0 0 0 0 0.25 0"/>
<feBlend mode="normal" in2="BackgroundImageFix" result="effect1_dropShadow_66_2174"/>
<feBlend mode="normal" in="SourceGraphic" in2="effect1_dropShadow_66_2174" result="shape"/>
</filter>
<filter id="filter19_d_66_2174" x="315.809" y="261.498" width="95.9296" height="42.6314" filterUnits="userSpaceOnUse" color-interpolation-filters="sRGB">
<feFlood flood-opacity="0" result="BackgroundImageFix"/>
<feColorMatrix in="SourceAlpha" type="matrix" values="0 0 0 0 0 0 0 0 0 0 0 0 0 0 0 0 0 0 127 0" result="hardAlpha"/>
<feOffset dy="2.12083"/>
<feGaussianBlur stdDeviation="2.65104"/>
<feComposite in2="hardAlpha" operator="out"/>
<feColorMatrix type="matrix" values="0 0 0 0 0 0 0 0 0 0 0 0 0 0 0 0 0 0 0.25 0"/>
<feBlend mode="normal" in2="BackgroundImageFix" result="effect1_dropShadow_66_2174"/>
<feBlend mode="normal" in="SourceGraphic" in2="effect1_dropShadow_66_2174" result="shape"/>
</filter>
<filter id="filter20_f_66_2174" x="412.831" y="49.172" width="60.5166" height="53.0604" filterUnits="userSpaceOnUse" color-interpolation-filters="sRGB">
<feFlood flood-opacity="0" result="BackgroundImageFix"/>
<feBlend mode="normal" in="SourceGraphic" in2="BackgroundImageFix" result="shape"/>
<feGaussianBlur stdDeviation="3.79633" result="effect1_foregroundBlur_66_2174"/>
</filter>
<filter id="filter21_f_66_2174" x="286.624" y="15.1793" width="72.4595" height="60.5668" filterUnits="userSpaceOnUse" color-interpolation-filters="sRGB">
<feFlood flood-opacity="0" result="BackgroundImageFix"/>
<feBlend mode="normal" in="SourceGraphic" in2="BackgroundImageFix" result="shape"/>
<feGaussianBlur stdDeviation="3.79633" result="effect1_foregroundBlur_66_2174"/>
</filter>
<filter id="filter22_f_66_2174" x="362.283" y="230.179" width="72.4595" height="60.5669" filterUnits="userSpaceOnUse" color-interpolation-filters="sRGB">
<feFlood flood-opacity="0" result="BackgroundImageFix"/>
<feBlend mode="normal" in="SourceGraphic" in2="BackgroundImageFix" result="shape"/>
<feGaussianBlur stdDeviation="3.79633" result="effect1_foregroundBlur_66_2174"/>
</filter>
<filter id="filter23_f_66_2174" x="79.2833" y="145.179" width="72.4595" height="60.5669" filterUnits="userSpaceOnUse" color-interpolation-filters="sRGB">
<feFlood flood-opacity="0" result="BackgroundImageFix"/>
<feBlend mode="normal" in="SourceGraphic" in2="BackgroundImageFix" result="shape"/>
<feGaussianBlur stdDeviation="3.79633" result="effect1_foregroundBlur_66_2174"/>
</filter>
<filter id="filter24_f_66_2174" x="217.651" y="50.2964" width="71.0293" height="64.2213" filterUnits="userSpaceOnUse" color-interpolation-filters="sRGB">
<feFlood flood-opacity="0" result="BackgroundImageFix"/>
<feBlend mode="normal" in="SourceGraphic" in2="BackgroundImageFix" result="shape"/>
<feGaussianBlur stdDeviation="3.79633" result="effect1_foregroundBlur_66_2174"/>
</filter>
<filter id="filter25_f_66_2174" x="293.31" y="265.296" width="71.0293" height="64.2213" filterUnits="userSpaceOnUse" color-interpolation-filters="sRGB">
<feFlood flood-opacity="0" result="BackgroundImageFix"/>
<feBlend mode="normal" in="SourceGraphic" in2="BackgroundImageFix" result="shape"/>
<feGaussianBlur stdDeviation="3.79633" result="effect1_foregroundBlur_66_2174"/>
</filter>
<filter id="filter26_f_66_2174" x="10.3102" y="180.296" width="71.0293" height="64.2213" filterUnits="userSpaceOnUse" color-interpolation-filters="sRGB">
<feFlood flood-opacity="0" result="BackgroundImageFix"/>
<feBlend mode="normal" in="SourceGraphic" in2="BackgroundImageFix" result="shape"/>
<feGaussianBlur stdDeviation="3.79633" result="effect1_foregroundBlur_66_2174"/>
</filter>
<filter id="filter27_d_66_2174" x="23.1283" y="179.356" width="115.234" height="37.8652" filterUnits="userSpaceOnUse" color-interpolation-filters="sRGB">
<feFlood flood-opacity="0" result="BackgroundImageFix"/>
<feColorMatrix in="SourceAlpha" type="matrix" values="0 0 0 0 0 0 0 0 0 0 0 0 0 0 0 0 0 0 127 0" result="hardAlpha"/>
<feOffset dy="1.88372"/>
<feGaussianBlur stdDeviation="2.35465"/>
<feComposite in2="hardAlpha" operator="out"/>
<feColorMatrix type="matrix" values="0 0 0 0 0 0 0 0 0 0 0 0 0 0 0 0 0 0 0.25 0"/>
<feBlend mode="normal" in2="BackgroundImageFix" result="effect1_dropShadow_66_2174"/>
<feBlend mode="normal" in="SourceGraphic" in2="effect1_dropShadow_66_2174" result="shape"/>
</filter>
<radialGradient id="paint0_radial_66_2174" cx="0" cy="0" r="1" gradientUnits="userSpaceOnUse" gradientTransform="translate(271.975 161.39) rotate(90) scale(112.439 200.784)">
<stop stop-color="#3335E6"/>
<stop offset="1" stop-color="#4A4CCB"/>
</radialGradient>
<linearGradient id="paint1_linear_66_2174" x1="248.646" y1="28.6816" x2="271.593" y2="296.011" gradientUnits="userSpaceOnUse">
<stop stop-color="#51C8E2" stop-opacity="0"/>
<stop offset="0.248136" stop-color="#61BBFD"/>
<stop offset="0.585532" stop-color="#9C9DEA"/>
<stop offset="0.833333" stop-color="#9798EE" stop-opacity="0.29"/>
<stop offset="1" stop-color="#9495F1"/>
</linearGradient>
<linearGradient id="paint2_linear_66_2174" x1="-169.367" y1="156.036" x2="185.16" y2="121.998" gradientUnits="userSpaceOnUse">
<stop stop-color="#FF008A"/>
<stop offset="1" stop-color="#FF008A" stop-opacity="0"/>
</linearGradient>
<linearGradient id="paint3_linear_66_2174" x1="130.853" y1="-13.7698" x2="318.251" y2="279.183" gradientUnits="userSpaceOnUse">
<stop stop-color="#5149CA"/>
<stop offset="0.274242" stop-color="#5149CA"/>
<stop offset="0.354167" stop-color="#B1AAFC" stop-opacity="0.57"/>
<stop offset="0.450681" stop-color="#484ACA"/>
<stop offset="0.692708" stop-color="#484ACA"/>
<stop offset="1" stop-color="#2B2DA3"/>
</linearGradient>
<linearGradient id="paint4_linear_66_2174" x1="248.646" y1="28.6816" x2="271.593" y2="296.011" gradientUnits="userSpaceOnUse">
<stop stop-color="#51C8E2" stop-opacity="0"/>
<stop offset="0.248136" stop-color="#61BBFD"/>
<stop offset="0.585532" stop-color="#9C9DEA"/>
<stop offset="0.833333" stop-color="#9798EE" stop-opacity="0.29"/>
<stop offset="1" stop-color="#9495F1"/>
</linearGradient>
<linearGradient id="paint5_linear_66_2174" x1="-169.367" y1="156.036" x2="185.16" y2="121.998" gradientUnits="userSpaceOnUse">
<stop stop-color="#FF008A"/>
<stop offset="1" stop-color="#FF008A" stop-opacity="0"/>
</linearGradient>
<linearGradient id="paint6_linear_66_2174" x1="137.091" y1="-4.18063" x2="311.514" y2="273.876" gradientUnits="userSpaceOnUse">
<stop stop-color="#241D93"/>
<stop offset="0.274242" stop-color="#493FDE"/>
<stop offset="0.354167" stop-color="#565BDA" stop-opacity="0.57"/>
<stop offset="0.450681" stop-color="#272AB3"/>
<stop offset="0.692708" stop-color="#C163ED"/>
<stop offset="1" stop-color="#2B2DA3"/>
</linearGradient>
<linearGradient id="paint7_linear_66_2174" x1="132.806" y1="-13.7698" x2="320.653" y2="278.206" gradientUnits="userSpaceOnUse">
<stop stop-color="#241D93"/>
<stop offset="0.274242" stop-color="#493FDE"/>
<stop offset="0.354167" stop-color="#565BDA" stop-opacity="0.57"/>
<stop offset="0.450681" stop-color="#272AB3"/>
<stop offset="0.692708" stop-color="#C163ED"/>
<stop offset="1" stop-color="#2B2DA3"/>
</linearGradient>
<linearGradient id="paint8_linear_66_2174" x1="139.795" y1="2.91208" x2="306.172" y2="274.501" gradientUnits="userSpaceOnUse">
<stop stop-color="#5149CA"/>
<stop offset="0.274242" stop-color="#5149CA"/>
<stop offset="0.354167" stop-color="#688BC0" stop-opacity="0.57"/>
<stop offset="0.450681" stop-color="#484ACA"/>
<stop offset="0.692708" stop-color="#484ACA"/>
<stop offset="1" stop-color="#422FB8"/>
</linearGradient>
<linearGradient id="paint9_linear_66_2174" x1="294.157" y1="94.0796" x2="294.157" y2="104.788" gradientUnits="userSpaceOnUse">
<stop stop-color="#D9D9D9"/>
<stop offset="1" stop-color="#7F82E8"/>
</linearGradient>
<linearGradient id="paint10_linear_66_2174" x1="118.997" y1="94.0797" x2="118.997" y2="104.788" gradientUnits="userSpaceOnUse">
<stop stop-color="#D9D9D9"/>
<stop offset="1" stop-color="#7F82E8"/>
</linearGradient>
<linearGradient id="paint11_linear_66_2174" x1="124.734" y1="113.202" x2="124.734" y2="123.91" gradientUnits="userSpaceOnUse">
<stop stop-color="#D9D9D9"/>
<stop offset="1" stop-color="#7F82E8"/>
</linearGradient>
<linearGradient id="paint12_linear_66_2174" x1="120.527" y1="132.324" x2="120.527" y2="143.033" gradientUnits="userSpaceOnUse">
<stop stop-color="#D9D9D9"/>
<stop offset="1" stop-color="#7F82E8"/>
</linearGradient>
<linearGradient id="paint13_linear_66_2174" x1="122.439" y1="168.274" x2="122.439" y2="178.982" gradientUnits="userSpaceOnUse">
<stop stop-color="#D9D9D9"/>
<stop offset="1" stop-color="#7F82E8"/>
</linearGradient>
<linearGradient id="paint14_linear_66_2174" x1="125.881" y1="189.691" x2="125.881" y2="200.399" gradientUnits="userSpaceOnUse">
<stop stop-color="#D9D9D9"/>
<stop offset="1" stop-color="#7F82E8"/>
</linearGradient>
<linearGradient id="paint15_linear_66_2174" x1="125.881" y1="221.051" x2="125.881" y2="231.76" gradientUnits="userSpaceOnUse">
<stop stop-color="#D9D9D9"/>
<stop offset="1" stop-color="#7F82E8"/>
</linearGradient>
<linearGradient id="paint16_linear_66_2174" x1="244.439" y1="113.202" x2="244.439" y2="123.91" gradientUnits="userSpaceOnUse">
<stop stop-color="#DE445F"/>
<stop offset="1" stop-color="#A23067"/>
</linearGradient>
<linearGradient id="paint17_linear_66_2174" x1="244.439" y1="221.051" x2="244.439" y2="231.76" gradientUnits="userSpaceOnUse">
<stop stop-color="#DE445F"/>
<stop offset="1" stop-color="#A23067"/>
</linearGradient>
<linearGradient id="paint18_linear_66_2174" x1="278.859" y1="132.324" x2="278.859" y2="143.033" gradientUnits="userSpaceOnUse">
<stop stop-color="#39B5EA"/>
<stop offset="1" stop-color="#197EAA"/>
</linearGradient>
<linearGradient id="paint19_linear_66_2174" x1="201.987" y1="170.569" x2="201.987" y2="181.277" gradientUnits="userSpaceOnUse">
<stop stop-color="#D9D9D9"/>
<stop offset="1" stop-color="#7F82E8"/>
</linearGradient>
<linearGradient id="paint20_linear_66_2174" x1="294.157" y1="151.446" x2="294.157" y2="162.155" gradientUnits="userSpaceOnUse">
<stop stop-color="#D9D9D9"/>
<stop offset="1" stop-color="#7F82E8"/>
</linearGradient>
<linearGradient id="paint21_linear_66_2174" x1="294.157" y1="240.174" x2="294.157" y2="250.882" gradientUnits="userSpaceOnUse">
<stop stop-color="#D9D9D9"/>
<stop offset="1" stop-color="#7F82E8"/>
</linearGradient>
<linearGradient id="paint22_linear_66_2174" x1="255.912" y1="189.691" x2="255.912" y2="200.399" gradientUnits="userSpaceOnUse">
<stop stop-color="#32F946"/>
<stop offset="1" stop-color="#468B49"/>
</linearGradient>
<linearGradient id="paint23_linear_66_2174" x1="505" y1="129" x2="437.5" y2="197" gradientUnits="userSpaceOnUse">
<stop stop-color="#E85EFF"/>
<stop offset="1" stop-color="#6BA3F9"/>
</linearGradient>
<linearGradient id="paint24_linear_66_2174" x1="435.662" y1="86.4308" x2="448.665" y2="196.575" gradientUnits="userSpaceOnUse">
<stop stop-color="white"/>
<stop offset="1" stop-color="white" stop-opacity="0"/>
</linearGradient>
<radialGradient id="paint25_radial_66_2174" cx="0" cy="0" r="1" gradientUnits="userSpaceOnUse" gradientTransform="translate(449 148) rotate(90) scale(24 29)">
<stop stop-color="white"/>
<stop offset="1" stop-color="#B4C0E8"/>
</radialGradient>
<linearGradient id="paint26_linear_66_2174" x1="113.643" y1="62.3368" x2="116.32" y2="79.5468" gradientUnits="userSpaceOnUse">
<stop stop-color="#34EE47"/>
<stop offset="1" stop-color="#255BE4"/>
</linearGradient>
<linearGradient id="paint27_linear_66_2174" x1="133.912" y1="63.4841" x2="136.207" y2="78.3995" gradientUnits="userSpaceOnUse">
<stop stop-color="#E3F50F"/>
<stop offset="1" stop-color="#497DCC"/>
</linearGradient>
<linearGradient id="paint28_linear_66_2174" x1="153.8" y1="64.249" x2="154.564" y2="77.6346" gradientUnits="userSpaceOnUse">
<stop stop-color="#D24061"/>
<stop offset="1" stop-color="#9336B4"/>
</linearGradient>
<linearGradient id="paint29_linear_66_2174" x1="85.4592" y1="81.8414" x2="85.4592" y2="239.409" gradientUnits="userSpaceOnUse">
<stop stop-color="white" stop-opacity="0"/>
<stop offset="0.541667" stop-color="white"/>
<stop offset="1" stop-color="white" stop-opacity="0"/>
</linearGradient>
<linearGradient id="paint30_linear_66_2174" x1="453.636" y1="70.1033" x2="287.655" y2="70.1033" gradientUnits="userSpaceOnUse">
<stop stop-color="#4292CC" stop-opacity="0"/>
<stop offset="0.541667" stop-color="#85D3F4"/>
<stop offset="1" stop-color="#2A44CD" stop-opacity="0"/>
</linearGradient>
<radialGradient id="paint31_radial_66_2174" cx="0" cy="0" r="1" gradientUnits="userSpaceOnUse" gradientTransform="translate(79.605 193.515) rotate(90) scale(46.6583 69.605)">
<stop stop-color="#8A8CFD"/>
<stop offset="1" stop-color="#5759C5"/>
</radialGradient>
<linearGradient id="paint32_linear_66_2174" x1="71.5176" y1="138.446" x2="82.8797" y2="249.028" gradientUnits="userSpaceOnUse">
<stop stop-color="#51C8E2" stop-opacity="0"/>
<stop offset="0.248136" stop-color="#61BBFD"/>
<stop offset="0.585532" stop-color="#9C9DEA"/>
<stop offset="0.833333" stop-color="#9798EE" stop-opacity="0.29"/>
<stop offset="1" stop-color="#9495F1"/>
</linearGradient>
<linearGradient id="paint33_linear_66_2174" x1="-73.3934" y1="191.294" x2="49.8492" y2="181.409" gradientUnits="userSpaceOnUse">
<stop stop-color="#00B2FF"/>
<stop offset="1" stop-color="#07FFD2" stop-opacity="0"/>
</linearGradient>
<radialGradient id="paint34_radial_66_2174" cx="0" cy="0" r="1" gradientUnits="userSpaceOnUse" gradientTransform="translate(287.655 64.249) rotate(90) scale(46.6583 69.605)">
<stop stop-color="#8A8CFD"/>
<stop offset="1" stop-color="#5759C5"/>
</radialGradient>
<linearGradient id="paint35_linear_66_2174" x1="279.568" y1="9.17951" x2="290.93" y2="119.762" gradientUnits="userSpaceOnUse">
<stop stop-color="#51C8E2" stop-opacity="0"/>
<stop offset="0.248136" stop-color="#61BBFD"/>
<stop offset="0.585532" stop-color="#9C9DEA"/>
<stop offset="0.833333" stop-color="#9798EE" stop-opacity="0.29"/>
<stop offset="1" stop-color="#9495F1"/>
</linearGradient>
<linearGradient id="paint36_linear_66_2174" x1="134.657" y1="62.0272" x2="257.899" y2="52.1423" gradientUnits="userSpaceOnUse">
<stop stop-color="#FFDCEF"/>
<stop offset="0.671875" stop-color="#7EDAF8"/>
<stop offset="1" stop-color="#FBDBEC" stop-opacity="0"/>
</linearGradient>
<radialGradient id="paint37_radial_66_2174" cx="0" cy="0" r="1" gradientUnits="userSpaceOnUse" gradientTransform="translate(363.379 278.418) rotate(90) scale(46.6583 69.605)">
<stop stop-color="#8A8CFD"/>
<stop offset="0.71875" stop-color="#6567D4"/>
<stop offset="1" stop-color="#5759C5"/>
</radialGradient>
<linearGradient id="paint38_linear_66_2174" x1="355.292" y1="223.349" x2="366.654" y2="333.931" gradientUnits="userSpaceOnUse">
<stop stop-color="#51C8E2" stop-opacity="0"/>
<stop offset="0.248136" stop-color="#61BBFD"/>
<stop offset="0.585532" stop-color="#9C9DEA"/>
<stop offset="0.833333" stop-color="#9798EE" stop-opacity="0.29"/>
<stop offset="1" stop-color="#9495F1"/>
</linearGradient>
<linearGradient id="paint39_linear_66_2174" x1="210.381" y1="276.196" x2="333.624" y2="266.312" gradientUnits="userSpaceOnUse">
<stop stop-color="#CD90B1"/>
<stop offset="1" stop-color="#DF3C94" stop-opacity="0"/>
</linearGradient>
<radialGradient id="paint40_radial_66_2174" cx="0" cy="0" r="1" gradientUnits="userSpaceOnUse" gradientTransform="translate(287.497 67.8022) rotate(90) scale(26.5 46.5)">
<stop stop-color="white"/>
<stop offset="1" stop-color="#A9B8EB"/>
</radialGradient>
<radialGradient id="paint41_radial_66_2174" cx="0" cy="0" r="1" gradientUnits="userSpaceOnUse" gradientTransform="translate(363.251 281.207) rotate(90) scale(26.5 45)">
<stop stop-color="white"/>
<stop offset="1" stop-color="#A5B5EE"/>
</radialGradient>
<linearGradient id="paint42_linear_66_2174" x1="449.969" y1="65.581" x2="441.321" y2="77.2013" gradientUnits="userSpaceOnUse">
<stop stop-color="#86DBFF"/>
<stop offset="1" stop-color="#141279" stop-opacity="0"/>
</linearGradient>
<linearGradient id="paint43_linear_66_2174" x1="341.963" y1="22.9448" x2="315.115" y2="45.8407" gradientUnits="userSpaceOnUse">
<stop stop-color="white"/>
<stop offset="1" stop-color="white" stop-opacity="0"/>
</linearGradient>
<linearGradient id="paint44_linear_66_2174" x1="417.621" y1="237.945" x2="390.774" y2="260.841" gradientUnits="userSpaceOnUse">
<stop stop-color="white"/>
<stop offset="1" stop-color="white" stop-opacity="0"/>
</linearGradient>
<linearGradient id="paint45_linear_66_2174" x1="134.621" y1="152.945" x2="107.774" y2="175.841" gradientUnits="userSpaceOnUse">
<stop stop-color="white"/>
<stop offset="1" stop-color="white" stop-opacity="0"/>
</linearGradient>
<linearGradient id="paint46_linear_66_2174" x1="232.991" y1="104.69" x2="262.402" y2="85.1956" gradientUnits="userSpaceOnUse">
<stop stop-color="white"/>
<stop offset="1" stop-color="white" stop-opacity="0"/>
</linearGradient>
<linearGradient id="paint47_linear_66_2174" x1="308.65" y1="319.69" x2="338.061" y2="300.196" gradientUnits="userSpaceOnUse">
<stop stop-color="white"/>
<stop offset="1" stop-color="white" stop-opacity="0"/>
</linearGradient>
<linearGradient id="paint48_linear_66_2174" x1="25.6501" y1="234.69" x2="55.0609" y2="215.196" gradientUnits="userSpaceOnUse">
<stop stop-color="white"/>
<stop offset="1" stop-color="white" stop-opacity="0"/>
</linearGradient>
<radialGradient id="paint49_radial_66_2174" cx="0" cy="0" r="1" gradientUnits="userSpaceOnUse" gradientTransform="translate(80.2979 197.128) rotate(90) scale(23.5 55)">
<stop stop-color="white"/>
<stop offset="0.994792" stop-color="#899CDE"/>
</radialGradient>
</defs>
</svg>
