<?xml version="1.0" standalone="no"?>
<!DOCTYPE svg PUBLIC "-//W3C//DTD SVG 20010904//EN"
 "http://www.w3.org/TR/2001/REC-SVG-20010904/DTD/svg10.dtd">
<svg version="1.0" xmlns="http://www.w3.org/2000/svg"
 width="1952.000000pt" height="1952.000000pt" viewBox="0 0 1952.000000 1952.000000"
 preserveAspectRatio="xMidYMid meet">
<metadata>
Created by potrace 1.14, written by Peter Selinger 2001-2017
</metadata>
<g transform="translate(0.000000,1952.000000) scale(0.100000,-0.100000)"
fill="#000000" stroke="none">
<path d="M7809 13441 c-8 -2 -138 -256 -144 -281 -1 -3 -27 -59 -59 -125 -161
-332 -267 -554 -346 -720 -26 -55 -73 -153 -104 -217 -31 -64 -56 -121 -56
-127 0 -6 -4 -11 -10 -11 -5 0 -10 -6 -10 -13 0 -7 -18 -49 -39 -92 -36 -74
-108 -223 -231 -480 -26 -55 -80 -167 -119 -248 -39 -81 -71 -152 -71 -156 0
-5 -7 -14 -15 -21 -9 -7 -14 -15 -11 -17 2 -2 -15 -43 -39 -91 -40 -82 -96
-197 -202 -422 -25 -52 -78 -163 -119 -247 -41 -84 -74 -157 -74 -163 0 -5 -4
-10 -10 -10 -5 0 -9 -3 -8 -7 1 -5 -10 -33 -24 -63 -15 -30 -32 -66 -37 -80
-6 -14 -15 -32 -20 -40 -5 -8 -27 -53 -49 -100 -22 -47 -76 -159 -120 -250
-43 -91 -92 -192 -108 -225 -16 -33 -27 -63 -26 -67 1 -5 -3 -8 -8 -8 -6 0
-10 -4 -10 -9 0 -5 -32 -76 -72 -158 -39 -81 -72 -150 -72 -153 -1 -3 -32 -67
-69 -143 -37 -77 -67 -143 -67 -148 0 -5 -5 -9 -12 -9 -6 0 -8 -3 -5 -7 4 -3
0 -17 -8 -30 -9 -13 -13 -23 -10 -23 4 0 -3 -13 -14 -29 -12 -16 -21 -31 -21
-34 0 -3 -25 -57 -55 -121 -30 -63 -55 -120 -55 -125 0 -6 -4 -11 -10 -11 -5
0 -10 -5 -10 -11 0 -6 -20 -52 -44 -103 -43 -88 -104 -216 -228 -476 -33 -69
-78 -161 -100 -205 -22 -44 -39 -80 -39 -80 1 0 -35 -76 -80 -170 -45 -93 -83
-172 -83 -175 -1 -3 -26 -57 -57 -120 -118 -241 -143 -295 -141 -302 1 -5 -2
-8 -8 -8 -6 0 -9 -3 -8 -7 2 -11 -24 -66 -35 -74 -5 -3 -9 -10 -9 -15 1 -9
-13 -38 -103 -227 -25 -55 -44 -101 -41 -104 2 -3 21 -4 40 -4 38 2 58 2 79 0
6 -1 44 -1 82 0 39 0 77 0 85 0 8 -1 38 0 65 0 28 1 68 1 89 1 22 1 43 3 48 6
4 3 8 2 8 -3 0 -4 24 -7 52 -5 29 1 59 3 66 3 43 0 105 0 120 -1 9 0 37 1 62
1 25 0 51 1 58 0 6 0 32 0 57 0 25 0 51 0 58 0 6 0 44 0 82 0 82 0 123 -1 133
-2 24 -4 40 4 50 24 10 20 54 111 194 407 28 58 54 114 59 125 5 11 13 27 18
35 6 8 30 58 54 110 68 144 156 331 175 370 9 19 21 38 25 41 5 3 9 10 9 15 0
11 24 63 106 234 155 321 202 423 202 431 0 5 4 9 10 9 5 0 9 3 8 8 -1 4 12
36 29 72 17 36 61 128 98 205 73 154 134 281 219 455 31 64 56 121 56 128 0 6
4 12 10 12 5 0 9 3 8 8 -1 4 21 54 49 112 102 212 114 240 113 246 -1 4 2 10
7 13 5 3 17 24 27 46 11 22 47 99 81 170 35 72 89 184 120 250 32 66 81 170
110 230 29 61 75 157 103 215 27 58 83 173 123 255 40 83 73 152 74 155 1 6
52 112 148 309 39 80 71 148 72 151 0 3 32 68 70 145 37 77 69 142 70 145 1 3
9 22 18 42 10 21 17 42 17 48 0 5 4 10 9 10 5 0 12 10 16 23 9 28 1 11 72 157
98 202 182 379 228 475 51 107 144 301 230 480 34 72 84 174 109 229 26 54 72
149 102 212 30 63 54 118 54 124 0 5 5 10 10 10 6 0 10 4 10 9 0 9 68 155 142
306 19 39 37 78 41 88 7 19 12 18 -223 17 -41 -1 -82 -1 -90 0 -18 0 -111 -1
-119 -2 -3 0 -8 0 -11 1 -18 7 -120 4 -120 -2 0 -5 -5 -5 -10 -2 -6 4 -48 6
-93 5 -45 -1 -88 -1 -94 -1 -7 0 -49 0 -93 0 -44 0 -88 0 -97 1 -23 0 -115 -1
-122 -2 -3 0 -8 0 -11 1 -11 4 -121 6 -131 2z"/>
<path d="M8884 12651 c2 -3 25 -60 51 -126 26 -66 56 -139 66 -162 11 -23 19
-45 19 -48 0 -4 6 -21 14 -38 17 -37 80 -190 82 -197 0 -3 6 -18 13 -35 7 -16
44 -109 83 -205 39 -96 75 -186 81 -200 6 -14 11 -27 11 -30 1 -4 48 -122 88
-220 5 -14 9 -26 9 -28 -1 -1 5 -15 12 -30 16 -31 19 -38 76 -182 23 -58 46
-114 50 -125 22 -52 40 -96 66 -160 15 -38 31 -79 36 -90 25 -59 131 -321 133
-330 2 -5 8 -22 14 -37 19 -45 29 -72 32 -83 1 -5 6 -16 12 -22 6 -7 7 -13 3
-13 -4 0 -3 -6 2 -12 6 -7 32 -67 58 -133 26 -66 53 -135 61 -152 33 -78 42
-101 59 -148 10 -27 22 -54 25 -60 4 -5 13 -28 20 -50 7 -22 15 -44 19 -50 3
-5 6 -12 6 -15 1 -3 8 -21 17 -40 9 -19 24 -57 34 -85 10 -27 20 -52 24 -55 3
-3 11 -23 18 -45 8 -22 20 -53 27 -70 38 -86 227 -562 228 -572 0 -7 4 -13 9
-13 4 0 8 -9 8 -19 0 -11 5 -23 10 -26 6 -3 10 -13 10 -21 0 -8 9 -34 21 -58
11 -25 22 -51 23 -58 3 -14 25 -65 57 -135 10 -24 19 -49 19 -56 0 -7 4 -17 9
-22 9 -11 31 -75 30 -89 0 -5 3 -12 8 -15 5 -3 24 -44 42 -91 18 -47 39 -99
46 -115 23 -51 38 -90 39 -97 1 -3 4 -10 9 -14 4 -4 7 -14 7 -23 0 -9 7 -29
16 -46 8 -16 31 -70 51 -120 19 -49 40 -101 46 -115 5 -14 11 -27 12 -30 1 -3
5 -14 10 -25 4 -11 32 -81 62 -155 30 -74 60 -148 67 -165 23 -54 58 -144 58
-149 -1 -3 9 -24 22 -47 l22 -42 712 -1 c703 -1 713 -1 725 19 7 11 28 58 46
105 18 47 42 105 53 128 10 24 28 69 40 100 11 32 28 75 38 97 9 22 23 56 30
75 7 19 24 59 37 88 12 29 23 54 23 57 0 2 5 16 12 32 6 15 12 30 13 33 1 3 5
14 10 25 4 11 28 70 52 130 46 115 51 127 77 187 9 20 16 39 16 43 0 4 7 21
15 38 8 18 39 95 70 172 31 77 60 149 64 160 36 85 46 110 47 115 0 3 7 19 14
35 7 17 14 35 16 40 1 6 18 47 38 93 19 45 35 83 35 85 0 1 5 16 12 32 7 17
13 35 15 40 2 9 19 49 54 130 18 42 162 400 164 410 1 6 10 27 19 49 9 21 17
40 17 41 0 1 8 20 17 41 9 22 17 41 18 44 1 3 8 21 17 40 8 19 21 53 29 75 8
22 18 43 22 46 5 3 8 8 7 10 -3 9 169 440 183 457 5 7 7 15 4 19 -4 3 -3 11 2
17 5 6 30 65 56 131 26 66 56 138 65 160 10 23 22 53 25 68 4 15 11 27 17 27
5 0 7 4 4 8 -2 4 2 21 9 37 8 17 67 161 131 320 64 160 170 423 236 585 66
162 120 300 122 305 1 6 8 21 16 35 7 14 12 25 11 25 -3 0 11 35 40 102 11 24
19 49 19 56 0 7 6 21 13 32 7 11 21 43 31 70 10 28 24 64 31 80 7 17 33 80 58
141 l45 112 -848 0 -847 0 -29 -82 c-16 -44 -29 -83 -30 -86 0 -3 -3 -12 -7
-20 -7 -18 -67 -181 -95 -260 -11 -30 -34 -95 -52 -145 -18 -49 -70 -196 -117
-325 -47 -129 -86 -239 -87 -245 -1 -5 -4 -14 -7 -20 -6 -9 -29 -74 -36 -100
-3 -14 -92 -255 -102 -280 -12 -27 -79 -217 -84 -235 0 -3 -14 -39 -30 -80
-15 -41 -30 -82 -32 -90 -2 -8 -4 -16 -5 -17 -2 -2 -3 -6 -4 -10 -1 -5 -14
-39 -28 -78 -15 -38 -59 -160 -98 -270 -39 -110 -73 -207 -77 -215 -3 -8 -7
-17 -8 -20 -1 -3 -5 -12 -8 -20 -7 -18 -47 -131 -51 -145 -2 -5 -6 -19 -10
-30 -5 -11 -12 -32 -18 -47 -6 -15 -10 -31 -10 -35 0 -4 -5 -17 -11 -28 -6
-11 -12 -23 -13 -27 -1 -5 -2 -9 -4 -10 -1 -2 -3 -10 -5 -18 -1 -9 -14 -45
-28 -80 -23 -59 -55 -148 -139 -390 -37 -106 -39 -109 -51 -79 -20 51 -69 184
-71 194 -2 6 -6 17 -9 25 -3 8 -27 74 -52 145 -53 148 -81 224 -100 275 -7 19
-48 132 -90 250 -42 118 -80 223 -85 232 -6 10 -10 27 -10 37 0 11 -4 22 -9
25 -5 3 -11 16 -14 28 -3 13 -21 68 -42 123 -20 55 -52 143 -70 195 -19 52
-46 127 -60 165 -14 39 -28 75 -29 80 -4 13 -14 40 -37 99 -10 27 -19 56 -19
65 0 10 -4 21 -8 26 -5 6 -18 37 -30 70 -64 186 -124 352 -133 367 -5 10 -9
22 -9 27 0 5 -5 22 -12 38 -6 15 -12 33 -14 38 -3 12 -72 203 -81 225 -3 8
-23 62 -43 120 -102 281 -132 366 -134 375 -1 6 -7 19 -13 30 -6 11 -11 22
-11 25 -1 8 -30 95 -42 125 -5 11 -14 34 -21 51 l-13 32 -863 0 c-474 -1 -861
-3 -859 -7z"/>
<path d="M3951 12173 c-1 -7 -4 -12 -8 -11 -9 1 -30 -6 -82 -29 -18 -8 -39
-16 -45 -18 -14 -3 -36 -11 -118 -46 -36 -16 -71 -29 -77 -29 -6 0 -19 -4 -29
-10 -14 -8 -57 -27 -82 -35 -3 -1 -14 -5 -25 -10 -11 -4 -130 -52 -265 -105
-135 -53 -254 -101 -265 -105 -11 -5 -22 -9 -25 -10 -3 -1 -18 -7 -33 -13 -16
-7 -33 -12 -38 -12 -5 0 -9 -5 -9 -11 0 -5 -4 -8 -8 -5 -5 3 -19 -1 -33 -8
-13 -7 -26 -13 -29 -13 -9 -3 -64 -23 -85 -32 -28 -12 -152 -62 -165 -66 -6
-2 -38 -15 -120 -48 -30 -12 -58 -21 -62 -19 -5 1 -8 -3 -8 -8 0 -6 -3 -9 -7
-8 -5 2 -28 -6 -53 -16 -25 -11 -50 -20 -55 -21 -6 -2 -33 -13 -60 -25 -27
-12 -54 -23 -60 -25 -12 -2 -40 -13 -80 -30 -16 -7 -151 -61 -300 -120 -148
-58 -284 -113 -302 -121 -17 -8 -35 -14 -40 -14 -6 0 -23 -6 -39 -14 -16 -8
-117 -49 -224 -91 -107 -43 -208 -83 -225 -90 -16 -7 -61 -25 -100 -40 -38
-15 -95 -37 -125 -50 -76 -31 -124 -50 -130 -50 -3 -1 -22 -9 -44 -18 -21 -9
-40 -17 -43 -17 -2 0 -20 -7 -41 -16 -20 -10 -41 -18 -47 -20 -5 -1 -64 -24
-130 -51 -66 -27 -122 -50 -125 -51 -3 0 -16 -5 -30 -10 -14 -6 -37 -15 -52
-21 l-28 -11 0 -709 0 -709 23 -7 c12 -4 24 -8 27 -10 46 -20 218 -87 231 -90
9 -2 36 -13 60 -24 23 -12 51 -21 61 -21 10 0 18 -4 18 -10 0 -5 6 -10 13 -10
6 0 70 -23 142 -51 163 -64 160 -63 217 -88 26 -12 52 -21 58 -21 6 0 18 -4
28 -9 9 -5 42 -19 72 -31 30 -11 65 -25 78 -31 37 -15 64 -26 127 -50 33 -12
66 -27 73 -32 6 -5 12 -6 12 -3 0 4 10 1 23 -6 12 -7 25 -13 30 -14 4 -1 9 -3
12 -4 3 -1 8 -3 13 -5 4 -1 21 -7 37 -14 17 -7 71 -28 120 -48 50 -19 104 -41
122 -49 17 -8 34 -14 37 -14 3 0 25 -8 49 -18 23 -10 56 -23 72 -29 27 -9 250
-99 315 -126 14 -5 32 -11 40 -13 8 -2 23 -7 35 -13 46 -23 135 -60 135 -55 0
2 17 -4 38 -15 20 -10 40 -19 45 -20 4 0 23 -8 43 -16 20 -8 39 -15 41 -15 6
0 71 -28 95 -41 10 -5 22 -9 27 -9 5 0 26 -8 47 -17 22 -9 42 -16 47 -15 4 1
7 -2 7 -6 0 -5 6 -9 13 -9 12 0 310 -116 420 -163 12 -5 99 -39 192 -76 326
-127 500 -195 520 -204 84 -38 144 -57 147 -47 3 10 2 1338 -1 1388 -1 11 -35
27 -118 54 -65 21 -122 41 -128 44 -5 3 -12 6 -15 6 -3 1 -32 9 -65 19 -33 10
-60 17 -60 15 0 -1 -11 4 -25 11 -14 8 -27 15 -30 15 -10 1 -155 47 -175 55
-19 8 -122 43 -137 46 -5 1 -9 2 -10 4 -2 1 -10 3 -18 5 -8 2 -49 16 -90 30
-41 15 -79 27 -85 29 -20 4 -120 38 -140 46 -21 9 -199 68 -225 74 -8 2 -70
23 -138 46 -68 23 -131 43 -140 45 -9 2 -55 18 -102 34 -47 17 -93 31 -102 31
-10 0 -18 5 -18 10 0 6 -3 9 -7 8 -13 -3 -97 23 -110 34 -7 6 -13 8 -13 4 0
-3 -12 -1 -27 5 -16 6 -35 13 -43 15 -8 2 -49 15 -90 29 -41 15 -79 27 -85 29
-13 3 -85 26 -105 33 -8 3 -78 27 -155 53 -125 42 -137 48 -117 59 12 6 22 10
22 7 0 -2 28 6 62 20 34 13 63 22 66 19 2 -2 23 5 46 17 22 11 42 20 44 19 4
-2 56 11 67 18 6 3 15 6 20 8 33 7 56 14 103 32 28 12 55 22 60 22 4 1 12 3
17 5 175 58 503 167 510 168 6 2 17 6 25 9 29 11 175 59 185 61 6 1 55 17 110
36 55 19 102 35 105 35 41 10 67 20 78 28 6 5 12 6 12 2 0 -4 7 -1 17 6 9 8
19 13 22 12 7 -3 39 5 66 17 11 5 67 23 125 41 58 17 110 35 115 39 11 9 76
25 88 22 4 -1 7 2 7 6 0 5 6 9 13 9 15 1 557 180 576 191 12 7 15 113 15 700
1 381 -2 700 -6 710 -4 9 -7 11 -7 5z"/>
<path d="M15505 11461 c0 -390 3 -711 5 -713 4 -3 94 -33 130 -43 3 -1 12 -4
20 -8 19 -7 273 -91 280 -92 3 0 43 -14 90 -30 47 -16 88 -30 93 -31 4 -1 8
-2 10 -4 1 -1 9 -3 17 -5 13 -2 202 -65 250 -82 8 -4 20 -7 25 -8 14 -4 167
-55 185 -62 8 -3 21 -7 28 -9 8 -1 21 -6 30 -10 9 -4 22 -8 28 -9 6 -2 60 -19
120 -40 60 -20 114 -38 119 -40 6 -1 17 -5 25 -8 18 -7 273 -91 280 -92 3 0
68 -22 145 -48 77 -26 143 -47 148 -47 4 0 21 -7 37 -15 16 -8 31 -15 32 -13
3 1 362 -115 398 -129 8 -4 17 -7 20 -8 3 -1 20 -6 38 -10 39 -9 41 -19 5 -33
-16 -6 -37 -13 -48 -18 -11 -4 -24 -8 -30 -9 -5 -2 -86 -28 -180 -60 -93 -31
-174 -58 -180 -59 -21 -5 -61 -18 -80 -26 -20 -9 -498 -168 -525 -175 -8 -2
-54 -17 -102 -33 -48 -16 -90 -27 -93 -24 -3 3 -5 1 -5 -5 0 -5 -6 -10 -12
-10 -11 0 -236 -73 -278 -90 -8 -3 -20 -7 -26 -8 -13 -3 -193 -63 -214 -72 -8
-3 -19 -7 -25 -8 -18 -5 -568 -186 -640 -212 -38 -14 -78 -26 -89 -29 -10 -2
-21 -6 -25 -9 -7 -8 -8 -1393 -1 -1405 3 -5 19 -3 35 4 17 7 50 21 75 31 86
34 115 46 132 55 10 6 23 10 30 10 7 0 24 6 38 13 14 7 48 21 75 31 28 10 64
24 80 32 17 7 107 43 200 79 94 37 189 76 212 86 23 10 48 19 55 19 8 0 18 4
24 8 7 7 195 83 214 88 3 0 16 5 30 11 14 6 192 77 395 157 204 81 379 151
390 156 11 5 67 28 125 50 58 22 114 45 125 49 22 10 56 23 68 26 4 2 10 4 15
5 4 1 10 2 14 2 3 -1 12 5 18 13 7 8 20 15 30 15 9 0 31 7 49 16 17 9 37 17
44 18 7 1 17 4 22 8 10 6 325 132 335 133 3 1 22 9 44 18 21 9 45 17 52 17 8
0 14 5 14 10 0 6 6 10 13 10 11 0 356 134 412 159 16 8 251 101 515 204 30 11
60 25 66 29 9 7 12 193 10 714 l-1 705 -115 45 c-63 25 -124 50 -135 55 -11 4
-45 18 -75 29 -30 12 -70 28 -89 37 -18 8 -39 16 -45 17 -6 1 -29 10 -51 20
-22 10 -49 19 -59 22 -11 2 -24 8 -30 14 -5 5 -16 10 -23 10 -7 0 -32 9 -56
19 -23 11 -130 54 -237 96 -107 42 -206 82 -220 88 -14 5 -29 11 -35 13 -5 1
-66 26 -135 54 -69 28 -129 53 -135 54 -5 2 -23 8 -40 15 -16 7 -138 55 -270
107 -132 53 -276 111 -320 129 -44 18 -91 36 -105 40 -14 4 -29 11 -35 15 -5
4 -28 13 -50 20 -22 7 -49 17 -60 23 -11 6 -25 12 -31 13 -12 2 -77 30 -106
45 -10 5 -22 9 -28 9 -6 0 -32 9 -58 21 -55 25 -72 31 -132 54 -25 9 -56 22
-70 28 -14 6 -27 11 -30 11 -11 3 -528 209 -567 227 -24 10 -49 19 -56 19 -7
0 -17 4 -23 8 -5 5 -36 19 -69 31 -33 13 -69 27 -80 32 -45 19 -378 149 -384
149 -3 0 -6 -319 -6 -709z"/>
</g>
</svg>
